<?xml version="1.0" encoding="utf-8"?>
<!-- Generator: Adobe Illustrator 28.0.0, SVG Export Plug-In . SVG Version: 6.00 Build 0)  -->
<svg version="1.1" id="圖層_1" xmlns="http://www.w3.org/2000/svg" xmlns:xlink="http://www.w3.org/1999/xlink" x="0px" y="0px"
	 viewBox="0 0 40 40" style="enable-background:new 0 0 40 40;" xml:space="preserve">
<style type="text/css">
	.st0{fill:#FFFFFF;}
	.st1{fill:#00559E;stroke:#00559E;stroke-width:2;stroke-linecap:round;stroke-linejoin:round;}
	.st2{fill:none;stroke:#FFFFFF;stroke-width:2;stroke-linecap:round;stroke-linejoin:round;}
	.st3{fill:none;stroke:#00559E;stroke-width:2;stroke-linecap:round;stroke-linejoin:round;}
	.st4{clip-path:url(#SVGID_00000000181377935776989590000016193553989768246155_);}
	.st5{opacity:0.16;fill:#FFFFFF;enable-background:new    ;}
	.st6{opacity:4.000000e-02;fill:#FFFFFF;enable-background:new    ;}
</style>
<g id="Group_33" transform="translate(-211 -1104)">
	<rect id="Rectangle_30" x="211" y="1104" class="st0" width="40" height="40"/>
	<g id="icon_工作區域_1_複本_2" transform="translate(219 1112)">
		<g id="Group_28" transform="translate(0 8.803)">
			<path id="Path_306" class="st1" d="M6.2,0h16.4c0.8,0,1.5,0.7,1.5,1.5v12.3c0,0.8-0.7,1.5-1.5,1.5H1.5c-0.8,0-1.5-0.7-1.5-1.5
				V1.5C0,0.7,0.7,0,1.5,0h6.2"/>
		</g>
		<line id="Line_13" class="st2" x1="6.4" y1="14.8" x2="17.8" y2="14.8"/>
		<line id="Line_14" class="st2" x1="6.4" y1="18.7" x2="13.2" y2="18.7"/>
		<ellipse id="Ellipse_5" class="st3" cx="12.1" cy="2.9" rx="2.9" ry="2.9"/>
		<line id="Line_15" class="st3" x1="12.1" y1="10.4" x2="12.1" y2="5.9"/>
		<g>
			<defs>
				<path id="SVGID_1_" d="M1,8h22c1.1,0,2,0.9,2,2v13c0,1.1-0.9,2-2,2H1c-1.1,0-2-0.9-2-2V10C-1,8.9-0.1,8,1,8z"/>
			</defs>
			<clipPath id="SVGID_00000055689969806821076940000001477103327861730176_">
				<use xlink:href="#SVGID_1_"  style="overflow:visible;"/>
			</clipPath>
			
				<g id="Mask_Group_5" transform="translate(0 -0.492)" style="clip-path:url(#SVGID_00000055689969806821076940000001477103327861730176_);">
				<g id="Group_962" transform="translate(1 -5.846)">
					<circle id="Ellipse_12" class="st5" cx="13.5" cy="33.8" r="9.5"/>
					<circle id="Ellipse_13" class="st6" cx="24.5" cy="28.8" r="11.5"/>
				</g>
			</g>
		</g>
	</g>
</g>
</svg>
