<?xml version="1.0" encoding="utf-8"?>
<!-- Generator: Adobe Illustrator 28.0.0, SVG Export Plug-In . SVG Version: 6.00 Build 0)  -->
<svg version="1.1" id="圖層_1" xmlns="http://www.w3.org/2000/svg" xmlns:xlink="http://www.w3.org/1999/xlink" x="0px" y="0px"
	 viewBox="0 0 40 40" style="enable-background:new 0 0 40 40;" xml:space="preserve">
<style type="text/css">
	.st0{clip-path:url(#SVGID_00000044170336667687941780000017016511761768308880_);}
	.st1{fill:#FFFFFF;}
	.st2{fill:#00559E;}
	.st3{fill:none;stroke:#00559E;}
	.st4{fill:none;stroke:#FFFFFF;stroke-width:1.5;stroke-linecap:round;}
</style>
<g>
	<defs>
		<rect id="SVGID_1_" width="40" height="40"/>
	</defs>
	<clipPath id="SVGID_00000039115385320409327600000007598754885421315205_">
		<use xlink:href="#SVGID_1_"  style="overflow:visible;"/>
	</clipPath>
	<g style="clip-path:url(#SVGID_00000039115385320409327600000007598754885421315205_);">
		<path class="st1" d="M40,0H0v40h40V0z"/>
		<path class="st2" d="M32.9,19c0.2,0,0.3-0.1,0.4-0.2c0.1-0.1,0.2-0.3,0.2-0.4v-5.3c0-0.3-0.1-0.6-0.3-0.8C33,12.1,32.7,12,32.4,12
			H8.6c-0.3,0-0.6,0.1-0.8,0.3c-0.2,0.2-0.3,0.5-0.3,0.8v5.3c0,0.2,0.1,0.3,0.2,0.4C7.8,18.9,7.9,19,8.1,19c0.5,0,0.9,0.2,1.2,0.5
			c0.3,0.3,0.5,0.8,0.5,1.2c0,0.5-0.2,0.9-0.5,1.2c-0.3,0.3-0.8,0.5-1.2,0.5c-0.2,0-0.3,0.1-0.4,0.2c-0.1,0.1-0.2,0.3-0.2,0.4v5.3
			c0,0.3,0.1,0.6,0.3,0.8c0.2,0.2,0.5,0.3,0.8,0.3h23.7c0.3,0,0.6-0.1,0.8-0.3c0.2-0.2,0.3-0.5,0.3-0.8V23c0-0.2-0.1-0.3-0.2-0.4
			c-0.1-0.1-0.3-0.2-0.4-0.2c-0.5,0-0.9-0.2-1.2-0.5c-0.3-0.3-0.5-0.8-0.5-1.2c0-0.5,0.2-0.9,0.5-1.2C32,19.2,32.5,19,32.9,19z"/>
		<path class="st3" d="M8.6,13.1v4.8c0.6,0.1,1.2,0.5,1.6,1c0.4,0.5,0.6,1.1,0.6,1.8c0,0.7-0.2,1.3-0.6,1.8s-1,0.9-1.6,1v4.8h4
			 M32.4,13.1H13.8v15.1h18.6v-4.8c-0.6-0.1-1.2-0.5-1.6-1c-0.4-0.5-0.6-1.1-0.6-1.8 M32.9,19c0.2,0,0.3-0.1,0.4-0.2
			c0.1-0.1,0.2-0.3,0.2-0.4v-5.3c0-0.3-0.1-0.6-0.3-0.8C33,12.1,32.7,12,32.4,12H8.6c-0.3,0-0.6,0.1-0.8,0.3
			c-0.2,0.2-0.3,0.5-0.3,0.8v5.3c0,0.2,0.1,0.3,0.2,0.4C7.8,18.9,7.9,19,8.1,19c0.5,0,0.9,0.2,1.2,0.5c0.3,0.3,0.5,0.8,0.5,1.2
			c0,0.5-0.2,0.9-0.5,1.2c-0.3,0.3-0.8,0.5-1.2,0.5c-0.2,0-0.3,0.1-0.4,0.2c-0.1,0.1-0.2,0.3-0.2,0.4v5.3c0,0.3,0.1,0.6,0.3,0.8
			c0.2,0.2,0.5,0.3,0.8,0.3h23.7c0.3,0,0.6-0.1,0.8-0.3c0.2-0.2,0.3-0.5,0.3-0.8V23c0-0.2-0.1-0.3-0.2-0.4c-0.1-0.1-0.3-0.2-0.4-0.2
			c-0.5,0-0.9-0.2-1.2-0.5c-0.3-0.3-0.5-0.8-0.5-1.2c0-0.5,0.2-0.9,0.5-1.2C32,19.2,32.5,19,32.9,19z"/>
		<path class="st1" d="M27.7,20.2l-2.1,1.7l0.6,2.6c0,0.1,0,0.3,0,0.4c0,0.1-0.1,0.3-0.3,0.3c-0.1,0.1-0.3,0.1-0.4,0.1
			c-0.1,0-0.3,0-0.4-0.1l-2.4-1.4l-2.4,1.4c-0.1,0.1-0.3,0.1-0.4,0.1c-0.1,0-0.3-0.1-0.4-0.1c-0.1-0.1-0.2-0.2-0.3-0.3
			c0-0.1-0.1-0.3,0-0.4l0.6-2.6l-2.1-1.7c-0.1-0.1-0.2-0.2-0.2-0.4c0-0.1,0-0.3,0-0.4c0-0.1,0.1-0.3,0.2-0.4
			c0.1-0.1,0.3-0.1,0.4-0.2l2.8-0.2l1.1-2.5c0.1-0.1,0.2-0.2,0.3-0.3c0.1-0.1,0.3-0.1,0.4-0.1c0.1,0,0.3,0,0.4,0.1
			c0.1,0.1,0.2,0.2,0.3,0.3l1.1,2.5l2.8,0.2c0.1,0,0.3,0.1,0.4,0.2c0.1,0.1,0.2,0.2,0.2,0.4c0,0.1,0,0.3,0,0.4
			C27.9,20,27.8,20.1,27.7,20.2z M25.3,20.2l-1.4-0.1c-0.1,0-0.3-0.1-0.4-0.1c-0.1-0.1-0.2-0.2-0.3-0.3l-0.6-1.3l-0.6,1.3
			c-0.1,0.1-0.1,0.2-0.3,0.3c-0.1,0.1-0.2,0.1-0.4,0.1l-1.4,0.1l1,0.9c0.1,0.1,0.2,0.2,0.2,0.3c0,0.1,0.1,0.3,0,0.4l-0.3,1.3
			l1.2-0.7c0.1-0.1,0.2-0.1,0.4-0.1c0.1,0,0.3,0,0.4,0.1l1.2,0.7L24,21.8c0-0.1,0-0.3,0-0.4c0-0.1,0.1-0.3,0.2-0.3L25.3,20.2z"/>
		<path class="st4" d="M12.5,15v11"/>
	</g>
</g>
</svg>
