<?xml version="1.0" encoding="utf-8"?>
<!-- Generator: Adobe Illustrator 28.0.0, SVG Export Plug-In . SVG Version: 6.00 Build 0)  -->
<svg version="1.1" id="圖層_1" xmlns="http://www.w3.org/2000/svg" xmlns:xlink="http://www.w3.org/1999/xlink" x="0px" y="0px"
	 viewBox="0 0 40 40" style="enable-background:new 0 0 40 40;" xml:space="preserve">
<style type="text/css">
	.st0{clip-path:url(#SVGID_00000145058523644090268540000005994474977240940166_);}
	.st1{opacity:0.6;}
	.st2{fill:#727474;stroke:#727474;}
	.st3{fill:#727474;}
</style>
<g>
	<g>
		<defs>
			<rect id="SVGID_1_" x="-0.2" y="-0.1" width="40" height="40"/>
		</defs>
		<clipPath id="SVGID_00000096038914424742647450000015922821640502358935_">
			<use xlink:href="#SVGID_1_"  style="overflow:visible;"/>
		</clipPath>
		<g style="clip-path:url(#SVGID_00000096038914424742647450000015922821640502358935_);">
			<g class="st1">
				<path class="st2" d="M32.7,18.9c0.2,0,0.3-0.1,0.4-0.2c0.1-0.1,0.2-0.3,0.2-0.4V13c0-0.3-0.1-0.6-0.3-0.8s-0.5-0.3-0.8-0.3H8.4
					c-0.3,0-0.6,0.1-0.8,0.3c-0.2,0.2-0.3,0.5-0.3,0.8v5.3c0,0.2,0.1,0.3,0.2,0.4s0.3,0.2,0.4,0.2c0.5,0,0.9,0.2,1.2,0.5
					s0.5,0.8,0.5,1.2c0,0.5-0.2,0.9-0.5,1.2c-0.3,0.3-0.8,0.5-1.2,0.5c-0.2,0-0.3,0.1-0.4,0.2s-0.2,0.3-0.2,0.4v5.3
					c0,0.3,0.1,0.6,0.3,0.8c0.2,0.2,0.5,0.3,0.8,0.3h23.7c0.3,0,0.6-0.1,0.8-0.3c0.2-0.2,0.3-0.5,0.3-0.8v-5.3
					c0-0.2-0.1-0.3-0.2-0.4c-0.1-0.1-0.3-0.2-0.4-0.2c-0.5,0-0.9-0.2-1.2-0.5c-0.3-0.3-0.5-0.8-0.5-1.2c0-0.5,0.2-0.9,0.5-1.2
					C31.8,19.1,32.2,18.9,32.7,18.9z M8.4,23.4c0.6-0.1,1.2-0.5,1.6-1s0.6-1.1,0.6-1.8c0-0.7-0.2-1.3-0.6-1.8c-0.4-0.5-1-0.9-1.6-1
					V13h4v15.1h-4V23.4z M32.1,23.4v4.8H13.6V13.1h18.6v4.8c-0.6,0.1-1.2,0.5-1.6,1S30,20,30,20.7c0,0.7,0.2,1.3,0.6,1.8
					C30.9,23,31.5,23.3,32.1,23.4z"/>
				<path class="st3" d="M27.5,20.1l-2.1,1.7l0.6,2.6c0,0.1,0,0.3,0,0.4s-0.1,0.3-0.3,0.3c-0.1,0.1-0.3,0.1-0.4,0.1s-0.3,0-0.4-0.1
					l-2.4-1.4l-2.4,1.4c-0.1,0.1-0.3,0.1-0.4,0.1s-0.3-0.1-0.4-0.1c-0.1-0.1-0.2-0.2-0.3-0.3c0-0.1-0.1-0.3,0-0.4l0.6-2.6l-2.1-1.7
					c-0.1-0.1-0.2-0.2-0.2-0.4c0-0.1,0-0.3,0-0.4s0.1-0.3,0.2-0.4s0.3-0.1,0.4-0.2l2.8-0.2l1.1-2.5c0.1-0.1,0.2-0.2,0.3-0.3
					c0.1-0.1,0.3-0.1,0.4-0.1s0.3,0,0.4,0.1s0.2,0.2,0.3,0.3l1.1,2.5l2.8,0.2c0.1,0,0.3,0.1,0.4,0.2s0.2,0.2,0.2,0.4
					c0,0.1,0,0.3,0,0.4C27.7,19.9,27.6,20,27.5,20.1z M25.1,20.2L23.7,20c-0.1,0-0.3-0.1-0.4-0.1c-0.1-0.1-0.2-0.2-0.3-0.3l-0.6-1.3
					L22,19.6c-0.1,0.1-0.1,0.2-0.3,0.3C21.6,20,21.5,20,21.3,20l-1.4,0.1l1,0.9c0.1,0.1,0.2,0.2,0.2,0.3c0,0.1,0.1,0.3,0,0.4
					L20.8,23l1.2-0.7c0.1-0.1,0.2-0.1,0.4-0.1c0.1,0,0.3,0,0.4,0.1L24,23l-0.3-1.3c0-0.1,0-0.3,0-0.4s0.1-0.3,0.2-0.3L25.1,20.2z"/>
			</g>
		</g>
	</g>
</g>
</svg>
