<?xml version="1.0" encoding="utf-8"?>
<!-- Generator: Adobe Illustrator 28.0.0, SVG Export Plug-In . SVG Version: 6.00 Build 0)  -->
<svg version="1.1" id="圖層_1" xmlns="http://www.w3.org/2000/svg" xmlns:xlink="http://www.w3.org/1999/xlink" x="0px" y="0px"
	 viewBox="0 0 32 32" style="enable-background:new 0 0 32 32;" xml:space="preserve">
<style type="text/css">
	.st0{fill:#161819;stroke:#161819;}
</style>
<path class="st0" d="M12.4,8.6c0.1,0,0.2,0,0.3,0.1c0.1,0.1,0.2,0.1,0.2,0.3s0.1,0.2,0,0.3c0,0.1-0.1,0.2-0.2,0.3L6.3,16l6.5,6.5
	c0.1,0.1,0.2,0.2,0.2,0.4c0,0.1-0.1,0.3-0.2,0.4s-0.2,0.2-0.4,0.2c-0.1,0-0.3-0.1-0.4-0.2l-6.9-6.9C5,16.3,5,16.3,5,16.2
	s0-0.1,0-0.2c0-0.1,0-0.1,0-0.2c0-0.1,0.1-0.1,0.1-0.2L12,8.7c0.1-0.1,0.1-0.1,0.2-0.1C12.3,8.6,12.4,8.6,12.4,8.6z"/>
</svg>
