<?xml version="1.0" encoding="utf-8"?>
<!-- Generator: Adobe Illustrator 28.0.0, SVG Export Plug-In . SVG Version: 6.00 Build 0)  -->
<svg version="1.1" id="圖層_1" xmlns="http://www.w3.org/2000/svg" xmlns:xlink="http://www.w3.org/1999/xlink" x="0px" y="0px"
	 viewBox="0 0 24 25" style="enable-background:new 0 0 24 25;" xml:space="preserve">
<style type="text/css">
	.st0{fill:#00559E;}
</style>
<path class="st0" d="M17.2,3.5H6.8C6.4,3.5,6,3.7,5.7,3.9S5.2,4.6,5.2,5v16.5c0,0.1,0,0.3,0.1,0.4c0.1,0.1,0.2,0.2,0.3,0.3
	c0.1,0.1,0.2,0.1,0.4,0.1c0.1,0,0.3,0,0.4-0.1l5.6-3.5l5.6,3.5c0.1,0.1,0.2,0.1,0.4,0.1c0.1,0,0.3,0,0.4-0.1
	c0.1-0.1,0.2-0.2,0.3-0.3s0.1-0.2,0.1-0.4V5c0-0.4-0.2-0.8-0.4-1.1S17.6,3.5,17.2,3.5z M17.2,20.1l-4.9-3C12.3,17,12.1,17,12,17
	c-0.1,0-0.3,0-0.4,0.1l-4.9,3V5h10.5V20.1z"/>
</svg>
