<?xml version="1.0" encoding="utf-8"?>
<!-- Generator: Adobe Illustrator 28.0.0, SVG Export Plug-In . SVG Version: 6.00 Build 0)  -->
<svg version="1.1" id="圖層_1" xmlns="http://www.w3.org/2000/svg" xmlns:xlink="http://www.w3.org/1999/xlink" x="0px" y="0px"
	 viewBox="0 0 49 48" style="enable-background:new 0 0 49 48;" xml:space="preserve">
<style type="text/css">
	.st0{fill:none;stroke:#393E3C;stroke-width:2;stroke-linecap:round;stroke-linejoin:round;}
	.st1{fill:#393E3C;}
	.st2{fill:#35B3F3;}
	.st3{opacity:0.6;fill:#393E3C;enable-background:new    ;}
	.st4{fill:#D5E1EC;}
</style>
<path class="st0" d="M13.3,13v1.9 M26.1,13v1.9 M29.8,17.9v14.6c0,1.7-1.3,3-3,3h-14c-1.7,0-3-1.3-3-3V17.9c0-1.7,1.3-3,3-3h14
	C28.5,14.9,29.8,16.3,29.8,17.9z"/>
<path class="st1" d="M14.8,19L14.8,19c0.6,0,1,0.4,1,1l0,0c0,0.6-0.4,1-1,1l0,0c-0.6,0-1-0.4-1-1l0,0C13.8,19.4,14.3,19,14.8,19z"/>
<path class="st1" d="M19.8,19L19.8,19c0.6,0,1,0.4,1,1l0,0c0,0.6-0.4,1-1,1l0,0c-0.6,0-1-0.4-1-1l0,0C18.8,19.4,19.3,19,19.8,19z"/>
<path class="st1" d="M24.8,19L24.8,19c0.6,0,1,0.4,1,1l0,0c0,0.6-0.4,1-1,1l0,0c-0.6,0-1-0.4-1-1l0,0C23.8,19.4,24.3,19,24.8,19z"/>
<path class="st1" d="M14.8,24L14.8,24c0.6,0,1,0.4,1,1l0,0c0,0.6-0.4,1-1,1l0,0c-0.6,0-1-0.4-1-1l0,0C13.8,24.4,14.3,24,14.8,24z"/>
<path class="st2" d="M19.8,24L19.8,24c0.6,0,1,0.4,1,1l0,0c0,0.6-0.4,1-1,1l0,0c-0.6,0-1-0.4-1-1l0,0C18.8,24.4,19.3,24,19.8,24z"/>
<path class="st1" d="M24.8,24L24.8,24c0.6,0,1,0.4,1,1l0,0c0,0.6-0.4,1-1,1l0,0c-0.6,0-1-0.4-1-1l0,0C23.8,24.4,24.3,24,24.8,24z"/>
<path class="st1" d="M14.8,29L14.8,29c0.6,0,1,0.4,1,1l0,0c0,0.6-0.4,1-1,1l0,0c-0.6,0-1-0.4-1-1l0,0C13.8,29.4,14.3,29,14.8,29z"/>
<path class="st3" d="M19.8,29L19.8,29c0.6,0,1,0.4,1,1l0,0c0,0.6-0.4,1-1,1l0,0c-0.6,0-1-0.4-1-1l0,0C18.8,29.4,19.3,29,19.8,29z"/>
<circle class="st2" cx="32.8" cy="35" r="9"/>
<path class="st4" d="M38.8,36c0,0.3-0.1,0.5-0.3,0.7S38.1,37,37.8,37h-5c-0.3,0-0.5-0.1-0.7-0.3s-0.3-0.4-0.3-0.7v-5
	c0-0.3,0.1-0.5,0.3-0.7s0.4-0.3,0.7-0.3s0.5,0.1,0.7,0.3s0.3,0.4,0.3,0.7v4h4c0.3,0,0.5,0.1,0.7,0.3S38.8,35.7,38.8,36z"/>
</svg>
