<?xml version="1.0" encoding="utf-8"?>
<!-- Generator: Adobe Illustrator 28.0.0, SVG Export Plug-In . SVG Version: 6.00 Build 0)  -->
<svg version="1.1" id="圖層_1" xmlns="http://www.w3.org/2000/svg" xmlns:xlink="http://www.w3.org/1999/xlink" x="0px" y="0px"
	 viewBox="0 0 17 24" style="enable-background:new 0 0 17 24;" xml:space="preserve">
<style type="text/css">
	.st0{fill:#1A73E8;}
	.st1{fill:#EA4335;}
	.st2{fill:#4285F4;}
	.st3{fill:#FBBC04;}
	.st4{fill:#34A853;}
</style>
<path class="st0" d="M10.9,0.4C10.1,0.1,9.3,0,8.4,0C5.8,0,3.5,1.2,2,3l4,3.3L10.9,0.4z"/>
<path class="st1" d="M2,3C0.7,4.4,0,6.3,0,8.4c0,1.6,0.3,2.9,0.8,4l5.1-6L2,3z"/>
<path class="st2" d="M8.4,5.2c1.8,0,3.2,1.4,3.2,3.2c0,0.8-0.3,1.5-0.8,2.1c0,0,2.5-3,5-5.9c-1-2-2.8-3.5-4.9-4.1l-5,5.9
	C6.5,5.6,7.4,5.2,8.4,5.2z"/>
<path class="st3" d="M8.4,11.6c-1.8,0-3.2-1.4-3.2-3.2c0-0.8,0.3-1.5,0.7-2.1l-5.1,6c0.9,1.9,2.3,3.5,3.8,5.4l6.2-7.4
	C10.2,11.1,9.4,11.6,8.4,11.6z"/>
<path class="st4" d="M10.7,19.8c2.8-4.4,6-6.4,6-11.4c0-1.4-0.3-2.7-0.9-3.9L4.6,17.8c0.5,0.6,1,1.3,1.4,2C7.8,22.4,7.3,24,8.4,24
	C9.5,24,9,22.4,10.7,19.8z"/>
</svg>
