<?xml version="1.0" encoding="utf-8"?>
<!-- Generator: Adobe Illustrator 28.0.0, SVG Export Plug-In . SVG Version: 6.00 Build 0)  -->
<svg version="1.1" id="圖層_1" xmlns="http://www.w3.org/2000/svg" xmlns:xlink="http://www.w3.org/1999/xlink" x="0px" y="0px"
	 viewBox="0 0 24 24" style="enable-background:new 0 0 24 24;" xml:space="preserve">
<style type="text/css">
	.st0{clip-path:url(#SVGID_00000099662199506245869720000003742072137591999122_);}
	.st1{opacity:8.000000e-02;fill:#00559E;enable-background:new    ;}
	.st2{fill:#00559E;}
</style>
<g>
	<defs>
		<rect id="SVGID_1_" y="0" width="24" height="24"/>
	</defs>
	<clipPath id="SVGID_00000079459473344959915540000001673398288068973697_">
		<use xlink:href="#SVGID_1_"  style="overflow:visible;"/>
	</clipPath>
	<g style="clip-path:url(#SVGID_00000079459473344959915540000001673398288068973697_);">
		<path class="st1" d="M19.2,0H4.8C2.1,0,0,2.1,0,4.8v14.4C0,21.9,2.1,24,4.8,24h14.4c2.7,0,4.8-2.1,4.8-4.8V4.8
			C24,2.1,21.9,0,19.2,0z"/>
		<path class="st2" d="M17.8,8.9L14,5.2c-0.1,0-0.1-0.1-0.2-0.1c-0.1,0-0.1,0-0.2,0H7.1C6.8,5,6.5,5.1,6.3,5.3C6.1,5.5,6,5.8,6,6.1
			v11.8c0,0.3,0.1,0.6,0.3,0.8C6.5,18.9,6.8,19,7.1,19h9.8c0.3,0,0.6-0.1,0.8-0.3c0.2-0.2,0.3-0.5,0.3-0.8V9.3c0-0.1,0-0.1,0-0.2
			C17.9,9,17.9,9,17.8,8.9z M14.2,6.8l2,1.9h-2V6.8z M16.9,17.9H7.1V6.1h6v3.2c0,0.1,0.1,0.3,0.2,0.4c0.1,0.1,0.2,0.2,0.4,0.2h3.3
			V17.9z M14,13.8c0.1,0.1,0.1,0.1,0.1,0.2c0,0.1,0,0.1,0,0.2c0,0.1,0,0.1,0,0.2c0,0.1-0.1,0.1-0.1,0.2l-1.6,1.6
			c-0.1,0.1-0.1,0.1-0.2,0.1c-0.1,0-0.1,0-0.2,0s-0.1,0-0.2,0c-0.1,0-0.1-0.1-0.2-0.1L10,14.5c-0.1-0.1-0.2-0.2-0.2-0.4
			c0-0.1,0.1-0.3,0.2-0.4c0.1-0.1,0.2-0.2,0.4-0.2c0.1,0,0.3,0.1,0.4,0.2l0.7,0.7v-3c0-0.1,0.1-0.3,0.2-0.4c0.1-0.1,0.2-0.2,0.4-0.2
			s0.3,0.1,0.4,0.2c0.1,0.1,0.2,0.2,0.2,0.4v3l0.7-0.7c0.1-0.1,0.1-0.1,0.2-0.1c0.1,0,0.1,0,0.2,0c0.1,0,0.1,0,0.2,0
			C13.9,13.7,14,13.7,14,13.8z"/>
	</g>
</g>
</svg>
