<?xml version="1.0" encoding="utf-8"?>
<!-- Generator: Adobe Illustrator 28.0.0, SVG Export Plug-In . SVG Version: 6.00 Build 0)  -->
<svg version="1.1" id="圖層_1" xmlns="http://www.w3.org/2000/svg" xmlns:xlink="http://www.w3.org/1999/xlink" x="0px" y="0px"
	 viewBox="0 0 25.7 10" style="enable-background:new 0 0 25.7 10;" xml:space="preserve">
<style type="text/css">
	.st0{fill:#00559E;stroke:#00559E;}
</style>
<path class="st0" d="M1.1,1.6c0-0.1,0-0.2,0.1-0.3C1.3,1.2,1.4,1.1,1.5,1C1.6,1,1.7,1,1.8,1C1.9,1,2,1.1,2.1,1.2l6.5,6.5L15,1.2
	C15.2,1.1,15.3,1,15.4,1c0.1,0,0.3,0.1,0.4,0.2C15.9,1.3,16,1.4,16,1.6S15.9,1.8,15.8,2L9,8.8C8.9,8.9,8.8,8.9,8.8,9
	C8.7,9,8.6,9,8.6,9C8.5,9,8.4,9,8.3,9c-0.1,0-0.1-0.1-0.2-0.1L1.3,2C1.2,1.9,1.2,1.8,1.2,1.8S1.1,1.6,1.1,1.6z"/>
</svg>
