<?xml version="1.0" encoding="utf-8"?>
<!-- Generator: Adobe Illustrator 28.0.0, SVG Export Plug-In . SVG Version: 6.00 Build 0)  -->
<svg version="1.1" id="圖層_1" xmlns="http://www.w3.org/2000/svg" xmlns:xlink="http://www.w3.org/1999/xlink" x="0px" y="0px"
	 viewBox="0 0 101 100" style="enable-background:new 0 0 101 100;" xml:space="preserve">
<style type="text/css">
	.st0{clip-path:url(#SVGID_00000116233032345681484140000005047827338730325888_);}
	.st1{opacity:8.000000e-02;fill:#9E9E9E;enable-background:new    ;}
	.st2{opacity:0.9;fill:#DE1616;}
</style>
<g>
	<g>
		<defs>
			<rect id="SVGID_1_" x="0.5" width="100" height="100"/>
		</defs>
		<clipPath id="SVGID_00000005973241660812812570000012715550387829033365_">
			<use xlink:href="#SVGID_1_"  style="overflow:visible;"/>
		</clipPath>
		<g style="clip-path:url(#SVGID_00000005973241660812812570000012715550387829033365_);">
			<path class="st1" d="M52.5,0h-4C22,0,0.5,21.5,0.5,48v4c0,26.5,21.5,48,48,48h4c26.5,0,48-21.5,48-48v-4C100.5,21.5,79,0,52.5,0z
				"/>
			<path class="st2" d="M56.2,50l12.2-12.2c1.6-1.6,1.6-4.1,0-5.7c-1.6-1.6-4.1-1.6-5.7,0L50.5,44.3L38.3,32.1
				c-1.6-1.6-4.1-1.6-5.7,0c-1.6,1.6-1.6,4.1,0,5.7L44.8,50L32.6,62.2c-1.6,1.6-1.6,4.1,0,5.7c0.8,0.8,1.8,1.2,2.8,1.2
				s2-0.4,2.8-1.2l12.2-12.2l12.2,12.2c0.8,0.8,1.8,1.2,2.8,1.2s2-0.4,2.8-1.2c1.6-1.6,1.6-4.1,0-5.7L56.2,50z"/>
		</g>
	</g>
</g>
</svg>
