<?xml version="1.0" encoding="utf-8"?>
<!-- Generator: Adobe Illustrator 28.0.0, SVG Export Plug-In . SVG Version: 6.00 Build 0)  -->
<svg version="1.1" id="圖層_1" xmlns="http://www.w3.org/2000/svg" xmlns:xlink="http://www.w3.org/1999/xlink" x="0px" y="0px"
	 viewBox="0 0 24 25" style="enable-background:new 0 0 24 25;" xml:space="preserve">
<style type="text/css">
	.st0{fill:#00559E;}
</style>
<path class="st0" d="M20,8.2L14.8,3c-0.1-0.1-0.2-0.1-0.2-0.2c-0.1,0-0.2-0.1-0.3-0.1h-9c-0.4,0-0.8,0.2-1.1,0.4S3.8,3.9,3.8,4.2
	v16.5c0,0.4,0.2,0.8,0.4,1.1s0.7,0.4,1.1,0.4h13.5c0.4,0,0.8-0.2,1.1-0.4s0.4-0.7,0.4-1.1v-12c0-0.1,0-0.2-0.1-0.3
	C20.2,8.4,20.1,8.3,20,8.2z M15,5.3L17.7,8H15V5.3z M18.8,20.7H5.2V4.2h8.2v4.5c0,0.2,0.1,0.4,0.2,0.5c0.1,0.1,0.3,0.2,0.5,0.2h4.5
	V20.7z M14.8,15c0.1,0.1,0.1,0.2,0.2,0.2c0,0.1,0.1,0.2,0.1,0.3s0,0.2-0.1,0.3c0,0.1-0.1,0.2-0.2,0.2l-2.2,2.2
	c-0.1,0.1-0.2,0.1-0.2,0.2c-0.1,0-0.2,0.1-0.3,0.1s-0.2,0-0.3-0.1c-0.1,0-0.2-0.1-0.2-0.2L9.2,16C9.1,15.9,9,15.7,9,15.5
	s0.1-0.4,0.2-0.5c0.1-0.1,0.3-0.2,0.5-0.2s0.4,0.1,0.5,0.2l1,1v-4.2c0-0.2,0.1-0.4,0.2-0.5c0.1-0.1,0.3-0.2,0.5-0.2s0.4,0.1,0.5,0.2
	c0.1,0.1,0.2,0.3,0.2,0.5v4.2l1-1c0.1-0.1,0.2-0.1,0.2-0.2c0.1,0,0.2-0.1,0.3-0.1s0.2,0,0.3,0.1C14.6,14.8,14.7,14.9,14.8,15z"/>
</svg>
