<svg width="32" height="32" viewBox="0 0 32 32" fill="none" xmlns="http://www.w3.org/2000/svg">
<g clip-path="url(#clip0_2806_4315)">
<path opacity="0.08" d="M25.6 0H6.4C2.86538 0 0 2.86538 0 6.4V25.6C0 29.1346 2.86538 32 6.4 32H25.6C29.1346 32 32 29.1346 32 25.6V6.4C32 2.86538 29.1346 0 25.6 0Z" fill="#00559E"/>
<path d="M23.2 23C23.6774 23 24.1352 22.8141 24.4728 22.4831C24.8104 22.1522 25 21.7033 25 21.2353V12.4118C25 11.9437 24.8104 11.4949 24.4728 11.1639C24.1352 10.833 23.6774 10.6471 23.2 10.6471H16.09C15.789 10.65 15.492 10.5788 15.2263 10.44C14.9605 10.3013 14.7346 10.0994 14.569 9.85294L13.84 8.79412C13.6761 8.55012 13.453 8.34983 13.1906 8.21123C12.9283 8.07263 12.635 8.00005 12.337 8H8.8C8.32261 8 7.86477 8.18592 7.52721 8.51687C7.18964 8.84782 7 9.29668 7 9.76471V21.2353C7 21.7033 7.18964 22.1522 7.52721 22.4831C7.86477 22.8141 8.32261 23 8.8 23H23.2Z" stroke="#00559E" stroke-width="1.5" stroke-linecap="round" stroke-linejoin="round"/>
<path d="M12.5 8H18C18.5 8.5 19.7 9.7 20.5 10.5" stroke="#00559E" stroke-width="1.5" stroke-linejoin="round"/>
</g>
<defs>
<clipPath id="clip0_2806_4315">
<rect width="32" height="32" fill="white"/>
</clipPath>
</defs>
</svg>
