<?xml version="1.0" encoding="utf-8"?>
<!-- Generator: Adobe Illustrator 28.0.0, SVG Export Plug-In . SVG Version: 6.00 Build 0)  -->
<svg version="1.1" id="Capa_1" xmlns="http://www.w3.org/2000/svg" xmlns:xlink="http://www.w3.org/1999/xlink" x="0px" y="0px"
	 viewBox="0 0 93.8 94.3" style="enable-background:new 0 0 93.8 94.3;" xml:space="preserve">
<style type="text/css">
	.st0{fill:#1E88E5;}
	.st1{fill:#FBC02D;}
	.st2{fill:#4CAF50;}
	.st3{fill:#E53935;}
	.st4{fill:#1565C0;}
</style>
<g>
	<polygon class="st0" points="51.2,39.2 53.8,42.9 57.8,40 57.8,61 62.1,61 62.1,33.4 58.5,33.4 	"/>
	<path class="st0" d="M44.3,46.4c1.6-1.4,2.6-3.5,2.6-5.7c0-4.4-3.9-8-8.6-8c-4,0-7.5,2.5-8.4,6.2l4.2,1.1c0.4-1.7,2.2-2.9,4.2-2.9
		c2.4,0,4.3,1.6,4.3,3.6s-1.9,3.6-4.3,3.6h-2.5v4.4h2.5c2.7,0,5,1.9,5,4.1c0,2.3-2.2,4.1-4.9,4.1c-2.4,0-4.5-1.5-4.8-3.6L29.4,54
		c0.7,4.1,4.6,7.2,9.1,7.2c5.1,0,9.2-3.8,9.2-8.5C47.6,50.2,46.3,47.9,44.3,46.4z"/>
	<polygon class="st1" points="72.2,92.3 21.8,92.3 21.8,72.2 72.2,72.2 	"/>
	<polygon class="st2" points="92.3,72.2 92.3,21.8 72.2,21.8 72.2,72.2 	"/>
	<path class="st0" d="M72.2,21.8V1.7h-63C5,1.7,1.6,5.1,1.6,9.3v63h20.1V21.8H72.2z"/>
	<polygon class="st3" points="72.2,72.2 72.2,92.3 92.3,72.2 	"/>
	<path class="st4" d="M84.8,1.7H72.2v20.1h20.1V9.2C92.3,5,89,1.7,84.8,1.7z"/>
	<path class="st4" d="M9.2,92.3h12.6V72.2H1.7v12.6C1.7,89,5,92.3,9.2,92.3z"/>
</g>
</svg>
