<?xml version="1.0" encoding="utf-8"?>
<!-- Generator: Adobe Illustrator 28.0.0, SVG Export Plug-In . SVG Version: 6.00 Build 0)  -->
<svg version="1.1" id="圖層_1" xmlns="http://www.w3.org/2000/svg" xmlns:xlink="http://www.w3.org/1999/xlink" x="0px" y="0px"
	 viewBox="0 0 40 40" style="enable-background:new 0 0 40 40;" xml:space="preserve">
<style type="text/css">
	.st0{fill:#FFFFFF;}
	.st1{fill:#00559E;stroke:#00559E;stroke-width:2;stroke-miterlimit:10;}
	.st2{fill:none;stroke:#FFFFFF;stroke-width:2;stroke-linecap:round;stroke-miterlimit:10;}
	.st3{clip-path:url(#SVGID_00000040563137970928461870000006561692366381252482_);}
	.st4{opacity:0.16;fill:#FFFFFF;enable-background:new    ;}
	.st5{opacity:4.000000e-02;fill:#FFFFFF;enable-background:new    ;}
</style>
<g id="Group_31" transform="translate(-39 -1104)">
	<rect id="Rectangle_32" x="39" y="1104" class="st0" width="40" height="40"/>
	<g id="icon_工作區域_1" transform="translate(47.927 1111.99)">
		<g id="Group_30" transform="translate(0 0)">
			<path id="Path_311-2" class="st1" d="M22.5,22.6c0,0.8-0.6,1.4-1.4,1.4H1.4c-0.8,0-1.4-0.6-1.4-1.4V10c0.1-0.9,0.5-1.7,1.1-2.3
				l9-7.3c0.7-0.5,1.6-0.5,2.2,0l9,7.3c0.7,0.6,1.1,1.4,1.1,2.3L22.5,22.6z"/>
		</g>
		<line id="Line_19" class="st2" x1="8.1" y1="20.6" x2="14.4" y2="20.6"/>
		<g>
			<defs>
				<path id="SVGID_1_" d="M23.9,23.9c0,0.9-0.7,1.6-1.6,1.6H0.2c-0.9,0-1.6-0.7-1.6-1.6V9.7c0.1-1,0.5-1.9,1.2-2.6L10-1.1
					c0.7-0.6,1.8-0.6,2.5,0l10.2,8.2c0.7,0.7,1.2,1.6,1.3,2.6L23.9,23.9z"/>
			</defs>
			<clipPath id="SVGID_00000039101378937067099190000009841154815823240076_">
				<use xlink:href="#SVGID_1_"  style="overflow:visible;"/>
			</clipPath>
			
				<g id="Mask_Group_3" transform="translate(-1.39 -1.484)" style="clip-path:url(#SVGID_00000039101378937067099190000009841154815823240076_);">
				<g id="Group_797" transform="translate(3.073 -9.377)">
					<circle id="Ellipse_10" class="st4" cx="9.9" cy="9.4" r="9.5"/>
					<circle id="Ellipse_11" class="st5" cx="23.9" cy="16.4" r="11.5"/>
				</g>
			</g>
		</g>
	</g>
</g>
</svg>
