<?xml version="1.0" encoding="utf-8"?>
<!-- Generator: Adobe Illustrator 28.0.0, SVG Export Plug-In . SVG Version: 6.00 Build 0)  -->
<svg version="1.1" id="圖層_1" xmlns="http://www.w3.org/2000/svg" xmlns:xlink="http://www.w3.org/1999/xlink" x="0px" y="0px"
	 viewBox="0 0 21 21" style="enable-background:new 0 0 21 21;" xml:space="preserve">
<style type="text/css">
	.st0{stroke:#FFFFFF;}
	.st1{fill:none;stroke:#FFFFFF;stroke-miterlimit:10;}
</style>
<path class="st0" d="M15.9,8.9v0.5l0,0V8.9z M15.9,9.4L15.9,9.4C15.9,9.4,15.9,9.4,15.9,9.4C15.9,9.4,15.9,9.5,15.9,9.4l-1.4,0H14
	V9.1l0.1,0.1c0.1,0.1,0.2,0.1,0.2,0.1l0,0c0,0,0.1,0,0.1,0c0.1,0,0.1,0,0.2,0c0.2,0,0.3,0,0.5,0c0.2,0,0.4,0,0.5,0
	C15.8,9.4,15.8,9.4,15.9,9.4z"/>
<path class="st0" d="M12.4,11.2L12.4,11.2L12.2,11L12.4,11.2z M9.6,7.5L9.6,7.5l0,1.5v2.2c0,0,0,0,0,0c0,0,0,0,0,0V7.5z"/>
<path class="st0" d="M7.8,11.3L7.8,11.3C7.8,11.3,7.8,11.3,7.8,11.3L7.8,11.3L7.8,11.3C7.8,11.3,7.8,11.3,7.8,11.3L7.8,11.3z
	 M7.9,11.3L7.9,11.3h0.5H7.9z"/>
<path class="st0" d="M4.6,10.8v0.5h0.5h1.3c0,0,0,0,0,0c0,0,0,0,0,0H4.5V7.6c0,0,0,0,0,0c0,0,0,0,0,0V10.8z M6.4,11.4
	C6.4,11.4,6.4,11.4,6.4,11.4L6.4,11.4z"/>
<path class="st1" d="M20.5,9.1c0-4.5-4.5-8.1-10-8.1C5,1,0.5,4.6,0.5,9.1c0,4,3.5,7.4,8.4,8c0.3,0.1,0.8,0.2,0.9,0.5
	c0.1,0.3,0.1,0.7,0,0.9l-0.1,0.9c0,0.3-0.2,1,0.9,0.6c1-0.5,5.8-3.4,7.9-5.8C19.8,12.5,20.5,10.9,20.5,9.1z"/>
</svg>
