<?xml version="1.0" encoding="utf-8"?>
<!-- Generator: Adobe Illustrator 28.0.0, SVG Export Plug-In . SVG Version: 6.00 Build 0)  -->
<svg version="1.1" id="圖層_1" xmlns="http://www.w3.org/2000/svg" xmlns:xlink="http://www.w3.org/1999/xlink" x="0px" y="0px"
	 viewBox="0 0 20 19" style="enable-background:new 0 0 20 19;" xml:space="preserve">
<style type="text/css">
	.st0{fill:#00559E;}
</style>
<path class="st0" d="M20,6c0,1.2-0.5,2.4-1.4,3.3l-3.1,3.1c-0.5,0.5-1,0.8-1.6,1.1c-0.6,0.2-1.2,0.4-1.9,0.4h0
	c-0.7,0-1.3-0.1-1.9-0.4c-0.6-0.3-1.1-0.6-1.6-1.1c-0.5-0.5-0.8-1-1-1.6c-0.2-0.6-0.3-1.3-0.3-1.9c0-0.2,0.1-0.4,0.2-0.5
	c0.1-0.1,0.3-0.2,0.5-0.2c0.2,0,0.4,0.1,0.5,0.2c0.1,0.1,0.2,0.3,0.2,0.5c0,0.5,0.1,0.9,0.2,1.3C9,10.6,9.2,11,9.5,11.3
	c0.3,0.3,0.7,0.6,1.1,0.8c0.4,0.2,0.9,0.3,1.3,0.3c0.5,0,0.9-0.1,1.3-0.3c0.4-0.2,0.8-0.4,1.1-0.7l3.1-3.1c0.6-0.6,1-1.5,1-2.4
	c0-0.9-0.4-1.8-1-2.4c-0.6-0.6-1.5-1-2.4-1c-0.9,0-1.8,0.4-2.4,1l-1,1c-0.1,0.1-0.3,0.2-0.5,0.2c-0.2,0-0.4-0.1-0.5-0.2
	c-0.1-0.1-0.2-0.3-0.2-0.5c0-0.2,0.1-0.4,0.2-0.5l1-1c0.5-0.5,1-0.8,1.6-1.1c0.6-0.2,1.2-0.4,1.9-0.4c0.6,0,1.3,0.1,1.9,0.4
	c0.6,0.2,1.1,0.6,1.6,1.1c0.5,0.5,0.8,1,1.1,1.6C19.9,4.6,20,5.3,20,6z M8.3,14.6l-1,1C7,16,6.6,16.2,6.2,16.4s-0.9,0.3-1.3,0.3
	c-0.7,0-1.3-0.2-1.9-0.6c-0.6-0.4-1-0.9-1.3-1.5s-0.3-1.3-0.2-2s0.5-1.3,0.9-1.8l3.1-3.1c0.5-0.5,1.1-0.8,1.8-1
	c0.7-0.1,1.4-0.1,2,0.2c0.6,0.3,1.2,0.7,1.5,1.3c0.4,0.6,0.6,1.3,0.5,2c0,0.2,0.1,0.4,0.2,0.5c0.1,0.1,0.3,0.2,0.5,0.2
	c0.2,0,0.4-0.1,0.5-0.2s0.2-0.3,0.2-0.5c0-0.7-0.1-1.3-0.3-1.9c-0.2-0.6-0.6-1.2-1.1-1.6C10.5,5.7,9.3,5.2,8,5.2
	c-1.3,0-2.5,0.5-3.4,1.4L1.4,9.7c-0.7,0.7-1.1,1.6-1.3,2.5c-0.2,0.9-0.1,1.9,0.3,2.8c0.4,0.9,1,1.7,1.8,2.2c0.8,0.5,1.7,0.8,2.7,0.8
	c0.6,0,1.3-0.1,1.9-0.4c0.6-0.2,1.1-0.6,1.6-1.1l1-1c0.1-0.1,0.2-0.3,0.2-0.5c0-0.2-0.1-0.3-0.2-0.5c-0.1-0.1-0.3-0.2-0.5-0.2
	C8.6,14.5,8.4,14.5,8.3,14.6z"/>
</svg>
