<?xml version="1.0" encoding="utf-8"?>
<!-- Generator: Adobe Illustrator 28.0.0, SVG Export Plug-In . SVG Version: 6.00 Build 0)  -->
<svg version="1.1" id="圖層_1" xmlns="http://www.w3.org/2000/svg" xmlns:xlink="http://www.w3.org/1999/xlink" x="0px" y="0px"
	 viewBox="0 0 99 38" style="enable-background:new 0 0 99 38;" xml:space="preserve">
<style type="text/css">
	.st0{clip-path:url(#SVGID_00000027578372960449239210000017980427128035319687_);}
	.st1{fill:#FFFFFF;filter:url(#Adobe_OpacityMaskFilter);}
	.st2{mask:url(#mask0_523_2375_00000152254950951887413710000002801821090545808285_);}
	.st3{fill:#FFFFFF;filter:url(#Adobe_OpacityMaskFilter_00000170269864266298947010000012654793528428105659_);}
	.st4{mask:url(#mask1_523_2375_00000114756863479951853640000004107302022566638268_);}
	.st5{fill:#161819;}
	.st6{fill:#F7AD0C;}
</style>
<g>
	<defs>
		<rect id="SVGID_1_" y="0" width="98.8" height="38"/>
	</defs>
	<clipPath id="SVGID_00000147924063503671659810000016746323582954691005_">
		<use xlink:href="#SVGID_1_"  style="overflow:visible;"/>
	</clipPath>
	<g style="clip-path:url(#SVGID_00000147924063503671659810000016746323582954691005_);">
		<defs>
			<filter id="Adobe_OpacityMaskFilter" filterUnits="userSpaceOnUse" x="6.9" y="0" width="91.9" height="34.4">
				<feColorMatrix  type="matrix" values="1 0 0 0 0  0 1 0 0 0  0 0 1 0 0  0 0 0 1 0"/>
			</filter>
		</defs>
		
			<mask maskUnits="userSpaceOnUse" x="6.9" y="0" width="91.9" height="34.4" id="mask0_523_2375_00000152254950951887413710000002801821090545808285_">
			<path class="st1" d="M98.8,0H6.9v34.4h91.9V0z"/>
		</mask>
		<g class="st2">
			<defs>
				
					<filter id="Adobe_OpacityMaskFilter_00000148646263313049405600000005539760863355792528_" filterUnits="userSpaceOnUse" x="6.9" y="0" width="91.9" height="34.4">
					<feColorMatrix  type="matrix" values="1 0 0 0 0  0 1 0 0 0  0 0 1 0 0  0 0 0 1 0"/>
				</filter>
			</defs>
			
				<mask maskUnits="userSpaceOnUse" x="6.9" y="0" width="91.9" height="34.4" id="mask1_523_2375_00000114756863479951853640000004107302022566638268_">
				<path style="fill:#FFFFFF;filter:url(#Adobe_OpacityMaskFilter_00000148646263313049405600000005539760863355792528_);" d="
					M98.8,0H6.9v34.4h91.9V0z"/>
			</mask>
			<g class="st4">
				<path class="st5" d="M33.7,21.2l0.1,1.2c0,0.1,0,0.2-0.1,0.2s-0.1,0.1-0.2,0.1c-0.6,0.1-1.1,0.2-1.7,0.2c-2.3,0-2.9-0.9-2.9-3.7
					v-4.3h-0.9c-0.1,0-0.2,0-0.3-0.1c-0.1-0.1-0.1-0.2-0.1-0.3v-1.3c0,0,0-0.1,0-0.1s0-0.1,0.1-0.1c0,0,0.1-0.1,0.1-0.1
					c0,0,0.1,0,0.1,0h0.9v-1.5c0-0.1,0-0.2,0.1-0.2c0.1-0.1,0.1-0.1,0.2-0.1l1.5-0.4c0.1,0,0.1,0,0.2,0c0.1,0,0.1,0,0.2,0.1
					c0,0,0.1,0.1,0.1,0.1c0,0.1,0,0.1,0,0.2V13h2.3c0,0,0.1,0,0.1,0c0,0,0.1,0,0.1,0.1c0,0,0.1,0.1,0.1,0.1c0,0,0,0.1,0,0.1v1.3
					c0,0,0,0.1,0,0.1c0,0,0,0.1-0.1,0.1c0,0-0.1,0.1-0.1,0.1c0,0-0.1,0-0.1,0H31v4c0,1.4,0,1.9,1,1.9c0.4,0,0.9,0,1.2,0
					c0.1,0,0.2,0,0.3,0.1C33.6,21,33.7,21.1,33.7,21.2 M26.6,17.9c0,3.6-1.4,5.1-4.4,5.1c-3,0-4.4-1.6-4.4-5.1
					c0-3.5,1.4-5.1,4.4-5.1C25.2,12.8,26.6,14.4,26.6,17.9z M24.3,17.9c0-2.2-0.6-3-2.1-3c-1.6,0-2.1,0.8-2.1,3c0,2,0.3,3.1,2.1,3.1
					C24,21,24.3,19.8,24.3,17.9z M60,13.2c0,0-0.1-0.1-0.1-0.1c-0.1,0-0.1,0-0.2,0h-1.5c-0.1,0-0.2,0-0.2,0.1
					c-0.1,0-0.1,0.1-0.1,0.2L56,20.6h-0.1l-1.9-7.3c0-0.1-0.1-0.1-0.1-0.2c-0.1,0-0.1-0.1-0.2-0.1h-1.5c-0.1,0-0.1,0-0.2,0
					c-0.1,0-0.1,0.1-0.1,0.1c0,0-0.1,0.1-0.1,0.2c0,0.1,0,0.1,0,0.2l2.1,8.2c0.1,0.4,0.5,1.1,1.2,1.1h0.4c0,0.1-0.1,0.3-0.1,0.4
					l0,0.1c-0.1,0.4-0.3,1-1.3,1l-1.9-0.1c-0.1,0-0.1,0-0.2,0s-0.1,0-0.1,0.1c0,0-0.1,0.1-0.1,0.1c0,0,0,0.1,0,0.2l0,1
					c0,0.1,0,0.2,0.1,0.2c0.1,0.1,0.1,0.1,0.2,0.1c0.8,0.2,1.6,0.3,2.4,0.3c0,0,0.1,0,0.1,0c1.4,0,2.3-0.9,2.8-2.7
					c0.6-2.1,1.3-4.8,1.8-6.7c0.2-0.9,0.4-1.6,0.6-2.2l0.3-1.1c0-0.1,0-0.1,0-0.2C60.1,13.3,60,13.2,60,13.2 M16.4,22.3
					c0,0.1,0,0.1,0,0.2c0,0.1,0,0.1-0.1,0.2c0,0.1-0.1,0.1-0.1,0.1c-0.1,0-0.1,0-0.2,0h-1.7c-0.1,0-0.1,0-0.2-0.1
					c-0.1,0-0.1-0.1-0.1-0.2l-2.2-5c-1.1,0-2.1-0.1-2.6-0.1v4.9c0,0,0,0.1,0,0.1c0,0,0,0.1-0.1,0.1c0,0-0.1,0.1-0.1,0.1
					c0,0-0.1,0-0.1,0H7.3c0,0-0.1,0-0.1,0c0,0-0.1,0-0.1-0.1c0,0-0.1-0.1-0.1-0.1c0,0,0-0.1,0-0.1V9.9c0-0.1,0-0.2,0.1-0.2
					C7,9.6,7.1,9.6,7.2,9.6c1.4-0.2,2.8-0.2,4.2-0.2c0.2,0,0.3,0,0.3,0c3.8,0,4.6,2.2,4.6,4.1c0,1.6-0.8,2.7-2.3,3.5L16.4,22.3z
					 M11.7,11.4h-0.8c-0.6,0-1.1,0-1.7,0.1v3.9c0.4,0,1.3,0.1,2.4,0.1c1.5,0,2.4-0.8,2.4-2C14,12.5,13.4,11.5,11.7,11.4 M42.8,16.1
					v6.5c0,0.1,0,0.1,0,0.2c0,0-0.1,0.1-0.1,0.1c0,0-0.1,0.1-0.1,0.1c-0.1,0-0.1,0-0.2,0c-0.5-0.1-1.1-0.3-1.5-0.6
					c0,0-1.7,0.7-3.2,0.7c-1.8,0-2.8-1.1-2.8-3.1c0-1.9,0.9-2.8,3.3-3l2.4-0.2v-0.6c0-0.7-0.4-1.2-1.2-1.2c-1.1,0-2.6,0.1-3.4,0.2
					c-0.1,0-0.1,0-0.2,0s-0.1,0-0.1-0.1c0,0-0.1-0.1-0.1-0.1c0,0,0-0.1,0-0.1l0-1.2c0-0.1,0-0.2,0.1-0.3s0.1-0.1,0.2-0.1
					c0.7-0.1,2.5-0.4,3.7-0.4C41.7,12.8,42.8,13.9,42.8,16.1 M38.4,18.6c-0.9,0.1-1.3,0.5-1.3,1.3c0,0.5,0.1,1.3,1,1.3
					c1,0,2.4-0.4,2.5-0.4v-2.3L38.4,18.6z M50.1,13c-1,0.1-2,0.6-2.6,1.1v-0.6c0,0,0-0.1,0-0.1c0,0,0-0.1-0.1-0.1
					c0,0-0.1-0.1-0.1-0.1c0,0-0.1,0-0.1,0h-1.5c0,0-0.1,0-0.1,0c0,0-0.1,0-0.1,0.1c0,0-0.1,0.1-0.1,0.1c0,0,0,0.1,0,0.1v9
					c0,0,0,0.1,0,0.1c0,0,0,0.1,0.1,0.1c0,0,0.1,0.1,0.1,0.1c0,0,0.1,0,0.1,0h1.5c0,0,0.1,0,0.1,0c0,0,0.1,0,0.1-0.1
					c0,0,0.1-0.1,0.1-0.1c0,0,0-0.1,0-0.1v-6.2c0.3-0.3,1.4-1.1,2.6-1.2c0.1,0,0.2-0.1,0.2-0.1c0.1-0.1,0.1-0.2,0.1-0.3v-1.3
					c0-0.1,0-0.1,0-0.1c0,0,0-0.1-0.1-0.1c0,0-0.1-0.1-0.1-0.1C50.2,13,50.1,13,50.1,13"/>
				<path class="st6" d="M74.1,26l-1.2,1.4L72.6,27l1.2-1.3c-0.2-0.2-0.3-0.3-0.5-0.5l0.3-0.3c0.5,0.4,0.9,0.8,1.4,1.2l-0.2,0.3
					C74.4,26.3,74.3,26.1,74.1,26z M71.8,22.6l-1.9,1.1c0.1,0.1,0.1,0.3,0.2,0.4L72,23C71.9,22.8,71.9,22.7,71.8,22.6z M73,24.3
					l-1,0.9l0.5-1.5c-0.1-0.1-0.1-0.2-0.2-0.3l-1.8,1.2c0.1,0.1,0.2,0.2,0.3,0.4l1.1-0.8l-0.5,1.5c0.1,0.1,0.2,0.2,0.3,0.4l1.7-1.4
					C73.2,24.5,73.1,24.4,73,24.3 M75.4,27c0.3,0.2,0.6,0.3,0.9,0.5l0.2-0.3c-0.4-0.2-0.8-0.5-1.2-0.8l-1.2,1.8
					c0.5,0.3,0.9,0.6,1.4,0.8l0.2-0.3l-1-0.6l0.3-0.5l0.7,0.4l0.2-0.3c-0.2-0.1-0.4-0.2-0.7-0.4L75.4,27z M81.5,20.3
					c-0.6,0-1.2-0.2-1.7-0.5c-0.5-0.3-0.9-0.8-1.1-1.4s-0.3-1.2-0.2-1.8c0.1-0.6,0.4-1.1,0.8-1.6c0.4-0.4,1-0.7,1.6-0.8
					c0.6-0.1,1.2-0.1,1.8,0.2c0.6,0.2,1.1,0.6,1.4,1.1c0.3,0.5,0.5,1.1,0.5,1.7c0,0.8-0.3,1.6-0.9,2.2C83.1,20,82.3,20.3,81.5,20.3z
					 M81.6,19.3c0.5,0,1-0.2,1.4-0.5c0.4-0.3,0.6-0.8,0.7-1.3c0.1-0.5-0.1-1-0.3-1.4c-0.3-0.4-0.7-0.7-1.2-0.8c0-0.1,0-0.5,0-0.5h-1
					c0,0,0,0.5,0,0.6c-0.4,0.1-0.8,0.4-1,0.7c-0.3,0.3-0.4,0.8-0.4,1.2c0,0.5,0.2,1.1,0.6,1.4C80.5,19,81,19.3,81.6,19.3 M77,5.6
					V5.5c0-0.3,0.1-0.5,0.3-0.7s0.4-0.3,0.7-0.3c0.1,0,0.3,0,0.4,0c0.1,0,0.3,0.1,0.4,0.2S79,4.9,79.1,5c0.1,0.1,0.1,0.3,0.1,0.4
					v0.1c0,0.3-0.1,0.5-0.3,0.7c-0.2,0.2-0.4,0.3-0.7,0.3c-0.3,0-0.6-0.1-0.8-0.3C77.2,6.1,77,5.9,77,5.6z M77.4,5.5
					c0,0.1,0,0.2,0.1,0.3c0,0.1,0.1,0.2,0.2,0.2c0.1,0.1,0.1,0.1,0.2,0.1c0.1,0,0.2,0,0.3,0c0.2,0,0.3-0.1,0.5-0.2
					c0.1-0.1,0.2-0.3,0.2-0.5c0,0,0,0,0-0.1c0-0.1,0-0.2-0.1-0.3S78.6,5,78.5,4.9c-0.1-0.1-0.2-0.1-0.2-0.1c-0.1,0-0.2,0-0.3,0
					c-0.2,0-0.3,0.1-0.5,0.2C77.5,5.1,77.4,5.3,77.4,5.5L77.4,5.5z M81.9,6.1h-0.4L82,5l0.5-1L83,4l0.3,1l0.4,1.3
					c-0.1,0-0.3-0.1-0.4-0.1L83,5.8c-0.3,0-0.6-0.1-0.9-0.1L81.9,6.1z M82.3,5.3c0.2,0,0.5,0,0.7,0.1L82.8,5l-0.1-0.5L82.5,5
					L82.3,5.3z M80.1,4.4l0.2,1.8l0.5,0l-0.2-1.8l0.7,0l0-0.4c-0.6,0-1.3,0.1-1.9,0.2l0.1,0.4L80.1,4.4z M80.2,28.3L80,29.6
					l-0.6-1.4c-0.1,0-0.2-0.1-0.4-0.1l-0.5,2.1c0.2,0,0.3,0.1,0.5,0.1l0.3-1.3l0.6,1.5c0.2,0,0.3,0.1,0.5,0.1l0.2-2.2
					C80.5,28.3,80.3,28.3,80.2,28.3 M92.7,23.7l-1.6-0.9l-0.2,0.4l1.9,1.1l0.7-1.3l-0.3-0.2L92.7,23.7z M90.3,24l2.2,0.7
					c-0.1,0.1-0.1,0.1-0.1,0.2c0,0-0.1,0.1-0.1,0.2l-0.4-0.1l-0.6,0.7l0.2,0.3c-0.1,0.1-0.2,0.2-0.3,0.3l-0.9-1.4L90,24.4L90.3,24z
					 M90.6,24.5l0.3,0.4l0.2,0.4l0.3-0.4l0.1-0.1L90.6,24.5z M88.3,27.4c0.1,0.2,0.1,0.4,0.1,0.5c0,0.2,0,0.3-0.1,0.4
					c-0.1,0.2-0.3,0.4-0.5,0.5c-0.1,0.1-0.3,0.1-0.4,0.1c-0.1,0-0.3,0-0.4,0c-0.1,0-0.3-0.1-0.4-0.2c-0.1-0.1-0.2-0.2-0.3-0.3
					c0,0,0-0.1,0-0.1c-0.1-0.1-0.1-0.3-0.1-0.4c0-0.2,0.1-0.5,0.2-0.7c0.1-0.2,0.4-0.3,0.6-0.4c0.2-0.1,0.5,0,0.7,0
					C88,27,88.2,27.2,88.3,27.4z M88.1,27.9c0-0.1,0-0.2-0.1-0.4c-0.1-0.1-0.2-0.2-0.3-0.3c-0.1-0.1-0.3-0.1-0.4,0
					c-0.1,0-0.3,0.1-0.4,0.3c-0.1,0.1-0.1,0.3-0.1,0.4c0,0.1,0,0.2,0.1,0.3c0,0,0,0.1,0.1,0.1c0.1,0.1,0.2,0.2,0.4,0.2
					c0.2,0,0.3,0,0.5-0.1c0.1,0,0.1-0.1,0.2-0.1C88,28.2,88.1,28.1,88.1,27.9 M89.1,25.3l0.9,1l-1.5-0.4c-0.1,0.1-0.2,0.1-0.3,0.2
					l1.3,1.8c0.1-0.1,0.2-0.2,0.3-0.3L89,26.5l1.5,0.5c0.1-0.1,0.2-0.2,0.4-0.3L89.4,25C89.3,25.1,89.2,25.2,89.1,25.3 M98.8,17.2
					c0,0.2,0,0.4,0,0.6v0l0,0c-0.8,0.5-1.7,0.7-2.6,0.7c0,0.1-0.1,1-0.1,1.1c0.9,0.2,1.7,0.7,2.3,1.4l0,0v0
					c-0.1,0.4-0.2,0.7-0.3,1.1l0,0l0,0c-0.9,0.2-1.8,0.2-2.7,0c0,0.1-0.4,0.9-0.4,1c0.8,0.5,1.4,1.1,1.9,1.9l0,0l0,0
					c-0.1,0.3-0.3,0.7-0.6,1l0,0h-0.1c-0.9,0-1.8-0.2-2.6-0.7c-0.1,0.1-0.6,0.8-0.7,0.9c0.6,0.7,1.1,1.5,1.3,2.4l0,0l0,0
					c-0.2,0.3-0.5,0.6-0.8,0.8l0,0l-0.1,0c-0.9-0.3-1.7-0.7-2.4-1.4C90.7,28.4,90.1,29,90,29c0.4,0.8,0.7,1.7,0.7,2.5v0.1l-0.1,0
					c-0.3,0.2-0.6,0.4-1,0.6l0,0l0,0c-0.8-0.5-1.4-1.1-1.9-1.9l-1.1,0.5c0.1,0.4,0.2,0.9,0.2,1.4c0,0.5-0.1,0.9-0.2,1.3v0l0,0
					c-0.3,0.1-0.7,0.2-1.1,0.3h-0.1l0,0c-0.7-0.6-1.1-1.5-1.4-2.3c-0.1,0-1,0.1-1.1,0.1c0,0.9-0.3,1.8-0.7,2.6l0,0h-0.1
					c-0.4,0-0.7,0-1.1,0h0l0,0c-0.5-0.8-0.7-1.7-0.7-2.6c-0.1,0-1-0.1-1.2-0.1c-0.2,0.9-0.7,1.7-1.4,2.3l0,0l-0.1,0
					c-0.4-0.1-0.7-0.2-1.1-0.3l0,0l0,0c-0.1-0.4-0.2-0.9-0.2-1.3c0-0.5,0.1-0.9,0.2-1.4c-0.1,0-0.9-0.4-1-0.4
					c-0.5,0.8-1.1,1.5-1.9,1.9l0,0l0,0c-0.3-0.2-0.7-0.3-1-0.6l0,0v-0.1c0-0.9,0.3-1.8,0.7-2.6c-0.1-0.1-0.8-0.6-0.9-0.7
					c-0.7,0.6-1.5,1.1-2.4,1.3l0,0l0,0c-0.3-0.2-0.5-0.5-0.8-0.8l0,0l0,0c0.3-0.9,0.7-1.7,1.4-2.3c-0.1-0.1-0.6-0.8-0.7-0.9
					c-0.8,0.5-1.7,0.7-2.6,0.7h0l0,0c-0.2-0.3-0.4-0.6-0.6-1l0,0l0,0c0.5-0.8,1.1-1.4,1.9-1.9c-0.1-0.1-0.4-0.9-0.4-1
					c-0.9,0.2-1.8,0.2-2.7,0l0,0l0,0c-0.1-0.3-0.2-0.7-0.3-1.1l0-0.1l0,0c0.7-0.6,1.5-1.1,2.4-1.4c0-0.1-0.1-1-0.2-1.2
					c-0.9,0-1.8-0.2-2.6-0.7l0,0v0c0-0.2,0-0.4,0-0.6c0-0.2,0-0.4,0-0.6v-0.1l0,0c0.8-0.5,1.7-0.7,2.6-0.7c0-0.1,0.1-1,0.1-1.1
					c-0.9-0.3-1.7-0.7-2.4-1.4l0,0l0,0c0-0.4,0.1-0.7,0.3-1.1l0,0l0,0c0.9-0.2,1.8-0.2,2.7,0c0-0.1,0.4-0.9,0.4-1
					c-0.8-0.5-1.5-1.1-1.9-1.9l0,0l0,0c0.2-0.3,0.3-0.7,0.6-1l0,0H67c0.9,0,1.8,0.2,2.6,0.7c0.1-0.1,0.6-0.8,0.7-0.9
					c-0.6-0.7-1.1-1.5-1.4-2.4l0,0l0,0c0.2-0.3,0.5-0.6,0.8-0.8l0,0l0,0c0.9,0.2,1.7,0.7,2.4,1.4L73,5.3c-0.4-0.8-0.7-1.7-0.7-2.5
					V2.7l0,0c0.3-0.2,0.6-0.4,1-0.6l0,0l0,0c0.8,0.5,1.4,1.1,1.9,1.9c0.1,0,1-0.4,1.1-0.5c-0.1-0.4-0.2-0.9-0.2-1.4
					c0-0.5,0.1-0.9,0.2-1.3V0.8l0,0c0.3-0.1,0.7-0.2,1.1-0.3h0.1l0,0C78.3,1.2,78.8,2,79,2.8c0.1,0,1-0.1,1.2-0.1
					c0-0.9,0.3-1.8,0.7-2.6l0,0l0,0c0.4,0,0.7,0,1.1,0l0,0l0,0c0.5,0.8,0.7,1.7,0.7,2.6c0.1,0,1,0.1,1.1,0.2
					c0.3-0.9,0.7-1.7,1.4-2.3l0,0l0,0c0.4,0,0.7,0.1,1.1,0.3l0,0l0,0.1c0.1,0.4,0.2,0.9,0.2,1.3c0,0.5-0.1,0.9-0.2,1.4L87.7,4
					c0.5-0.8,1.1-1.4,1.9-1.9l0,0l0,0c0.3,0.2,0.7,0.3,1,0.6l0,0v0.1c0,0.9-0.3,1.8-0.7,2.6L90.9,6c0.7-0.6,1.5-1.1,2.4-1.4l0,0l0,0
					c0.3,0.2,0.6,0.5,0.8,0.8l0,0l0,0c-0.2,0.9-0.7,1.7-1.4,2.3c0.1,0.1,0.6,0.8,0.7,0.9c0.8-0.4,1.7-0.7,2.6-0.7h0l0,0
					c0.2,0.3,0.4,0.6,0.6,1l0,0.1l0,0c-0.5,0.8-1.1,1.4-1.9,1.9c0,0.1,0.4,0.9,0.4,1c0.9-0.2,1.8-0.2,2.7,0l0,0l0,0
					c0.1,0.3,0.2,0.7,0.3,1.1l0,0l0,0c-0.7,0.6-1.5,1.1-2.4,1.4c0,0.1,0.1,1,0.2,1.1c0.9,0,1.8,0.3,2.6,0.7l0,0v0
					C98.8,16.8,98.8,17,98.8,17.2 M72.9,7.2l1.4,1.6c0.2,0.2,0.4,0.2,0.7,0c1.9-1.4,4.2-2.2,6.6-2.2c2.4,0,4.7,0.8,6.6,2.2
					c0.3,0.2,0.5,0.2,0.7,0l1.4-1.6c0.2-0.2,0.2-0.4-0.1-0.7c-2.4-1.9-5.4-3-8.5-3c-3.1,0-6.1,1.1-8.5,3C72.7,6.8,72.7,7,72.9,7.2
					 M73,13.8c-0.2-0.1-0.3-0.2-0.5-0.2c-0.1,0-0.2,0.1-0.3,0.3c-0.7,2.3-0.7,4.2,0,6.4c0,0.1,0.1,0.3,0.2,0.3c0.1,0,0.3,0,0.5-0.1
					l4.4-3c0.1,0,0.1-0.1,0.2-0.2c0-0.1,0.1-0.2,0.1-0.2c0-0.1,0-0.2-0.1-0.2c0-0.1-0.1-0.1-0.2-0.2L73,13.8z M73.9,11.2
					c0,0.2,0.2,0.2,0.4,0.3l4.8,2.3c0.1,0,0.2,0.1,0.3,0.1c0.1,0,0.2,0,0.3-0.1c0.1-0.1,0.1-0.1,0.2-0.2c0-0.1,0.1-0.2,0.1-0.2
					l0.4-5.3c0-0.3,0-0.4-0.1-0.5c-0.1,0-0.1-0.1-0.2-0.1c-0.1,0-0.1,0-0.2,0c-2.3,0.5-4,1.5-5.6,3.2C73.9,11,73.9,11.1,73.9,11.2
					 M74,23.3c0,0.1,0.1,0.2,0.2,0.3c1.6,1.7,3.3,2.7,5.6,3.2c0.1,0,0.1,0,0.2,0c0.1,0,0.1,0,0.2-0.1c0.1-0.1,0.1-0.2,0.1-0.5
					c0,0-0.4-5.3-0.4-5.3c0-0.1,0-0.2-0.1-0.2c0-0.1-0.1-0.1-0.2-0.2c-0.1,0-0.2-0.1-0.3-0.1c-0.1,0-0.2,0-0.3,0.1l-4.8,2.3
					C74.2,23,74,23.1,74,23.3C74,23.3,74,23.3,74,23.3 M81.5,20.6c0.7,0,1.3-0.2,1.9-0.6s1-0.9,1.3-1.5c0.3-0.6,0.3-1.3,0.2-2
					c-0.1-0.7-0.5-1.3-0.9-1.8s-1.1-0.8-1.8-0.9c-0.7-0.1-1.4-0.1-2,0.2c-0.6,0.3-1.2,0.7-1.5,1.3c-0.4,0.6-0.6,1.2-0.6,1.9
					c0,0.9,0.4,1.8,1,2.4C79.7,20.3,80.6,20.6,81.5,20.6z M83,26.7c0.1,0,0.1,0.1,0.2,0.1c0.1,0,0.1,0,0.2,0c2.3-0.5,4-1.5,5.6-3.2
					c0.1-0.1,0.2-0.2,0.2-0.4c0-0.1-0.1-0.2-0.4-0.3L84,20.5c-0.1,0-0.2-0.1-0.3-0.1c-0.1,0-0.2,0-0.3,0.1c-0.1,0-0.1,0.1-0.2,0.2
					c0,0.1-0.1,0.2-0.1,0.3l-0.4,5.3C82.9,26.4,82.9,26.6,83,26.7 M90.1,20.6c0.1,0.1,0.3,0.2,0.5,0.2c0.1,0,0.2-0.1,0.2-0.3
					c0.7-2.3,0.7-4.2,0-6.4c0-0.1,0-0.1-0.1-0.2c0-0.1-0.1-0.1-0.1-0.1c-0.1,0-0.3,0-0.5,0.2l-4.4,3c-0.1,0-0.1,0.1-0.2,0.2
					s-0.1,0.2-0.1,0.2c0,0.1,0,0.2,0.1,0.2c0,0.1,0.1,0.1,0.2,0.2L90.1,20.6z M89.2,11.1c0-0.1,0-0.1-0.1-0.2c0-0.1-0.1-0.1-0.1-0.1
					c-1.6-1.7-3.3-2.7-5.6-3.2c-0.1,0-0.1,0-0.2,0c-0.1,0-0.1,0-0.2,0.1c-0.1,0.1-0.1,0.2-0.1,0.5l0.4,5.3c0,0.1,0,0.2,0.1,0.3
					c0,0.1,0.1,0.1,0.2,0.2c0.1,0,0.2,0.1,0.3,0.1c0.1,0,0.2,0,0.2-0.1l4.8-2.3C89,11.4,89.1,11.3,89.2,11.1
					C89.2,11.2,89.2,11.1,89.2,11.1 M68.7,20.6l2-0.6c0.1,0,0.2-0.1,0.3-0.2s0.1-0.2,0.1-0.3c-0.7-3.8,0.2-6.8,2.4-9.3
					c0.1,0,0.1-0.1,0.1-0.2c0-0.1,0-0.1,0.1-0.2c0-0.1,0-0.1,0-0.2c0-0.1-0.1-0.1-0.1-0.2L72,8c-0.1-0.2-0.4-0.2-0.6,0.1
					c-2.8,3-4.3,7.5-3.2,12.2c0,0.1,0,0.1,0.1,0.2c0,0,0.1,0.1,0.1,0.1c0,0,0.1,0,0.2,0.1C68.6,20.6,68.6,20.6,68.7,20.6 M94,21.7
					L92,21c-0.1,0-0.4,0-0.5,0.3c-0.8,2-2.2,3.7-4,4.8c-1.8,1.2-3.9,1.8-6,1.8c-2.1,0-4.2-0.6-6-1.8c-1.8-1.2-3.1-2.9-3.9-4.9
					c0-0.1-0.1-0.2-0.2-0.2c-0.1,0-0.2-0.1-0.3,0l-2,0.7c-0.1,0-0.1,0-0.2,0.1c0,0-0.1,0.1-0.1,0.1c0,0.1,0,0.1,0,0.2
					c0,0.1,0,0.1,0,0.2c1,2.6,2.8,4.7,5,6.3c2.3,1.5,5,2.4,7.7,2.4c2.8,0,5.4-0.8,7.7-2.4c2.3-1.5,4-3.7,5-6.3c0-0.1,0-0.1,0-0.2
					s0-0.1,0-0.2c0-0.1-0.1-0.1-0.1-0.1C94.1,21.7,94.1,21.7,94,21.7z M91.7,8c-0.2-0.2-0.5-0.2-0.6,0l-1.5,1.5
					c-0.1,0-0.1,0.1-0.1,0.2c0,0.1,0,0.1,0,0.2c0,0.1,0,0.1,0.1,0.2c0,0.1,0.1,0.1,0.1,0.2c2.2,2.5,3.2,5.5,2.4,9.3
					c0,0.1,0,0.2,0.1,0.3c0.1,0.1,0.2,0.2,0.3,0.2l2,0.6c0.1,0,0.1,0,0.2,0c0.1,0,0.1,0,0.2-0.1c0,0,0.1-0.1,0.1-0.1
					c0,0,0-0.1,0.1-0.2C96,15.6,94.5,11,91.7,8z M86.9,7.5l0.5-0.9L88.7,6c-0.1-0.1-0.3-0.2-0.4-0.2l-0.9,0.4l-0.2-0.9
					C87,5.1,86.9,5,86.7,5L87,6.3l-0.5,0.9L86.9,7.5z M84.5,27.9c-0.6,0.1-1.1,0.3-1.7,0.3l0.1,0.4c0.2,0,0.4-0.1,0.7-0.1l0.3,1.8
					l0.5-0.1l-0.4-1.7c0.2-0.1,0.5-0.1,0.7-0.2L84.5,27.9z M78.3,28.2v0.1c0,0.1-0.1,0.3-0.2,0.4c-0.1,0.1-0.2,0.2-0.4,0.2l0.1,1
					c-0.2,0-0.3-0.1-0.5-0.1l0-1l-0.4-0.2l-0.3,0.8c-0.1,0-0.3-0.1-0.4-0.2l0.4-1l0.1-0.1l0.4-0.8l1,0.4c0.1,0,0.2,0.1,0.2,0.2
					S78.3,28.1,78.3,28.2 M77.9,28.2C77.9,28.2,77.9,28.2,77.9,28.2c-0.1-0.1-0.1-0.1-0.1-0.1l-0.5-0.2l-0.1,0.3l0,0.1v0l0.5,0.2
					c0.1,0.1,0.3-0.1,0.3-0.2C77.9,28.3,77.9,28.3,77.9,28.2 M84.5,6.5c-0.2-0.1-0.3-0.1-0.5-0.1l0.4-1.2l0.3-0.9
					c0.4,0.1,0.7,0.2,1.1,0.3C85.9,4.7,86,4.9,86,5.1c0,0.3-0.1,0.7-0.5,0.8l0.1,1c-0.2-0.1-0.3-0.1-0.4-0.2l-0.1-0.8l-0.4-0.1
					L84.5,6.5z M84.8,5.3l0.5,0.2c0.1,0,0.3-0.2,0.3-0.4c0,0,0-0.1,0-0.1c0,0-0.1-0.1-0.1-0.1c-0.2-0.1-0.3-0.1-0.5-0.1l-0.1,0.3
					L84.8,5.3z M82.5,29.3l0.5,1.1c-0.2,0-0.3,0-0.4,0l-0.1-0.4l-0.9,0l-0.1,0.4c-0.2,0-0.3,0-0.4,0l0.4-1.2l0.3-0.9l0,0l0.5,0
					l0,0.1L82.5,29.3z M82.2,29.7L82,29.3l-0.2-0.4l-0.1,0.4l-0.1,0.4L82.2,29.7z M85.1,27.7l0.7,2c0.1,0,0.3-0.1,0.4-0.2l-0.7-2
					C85.3,27.6,85.2,27.7,85.1,27.7 M74.6,6.1l-0.1-0.2c0.3-0.2,0.7-0.4,1-0.5c0.4-0.2,0.9,0.3,0.9,0.8c0,0.1,0,0.2-0.1,0.2L77.1,7
					c-0.1,0.1-0.3,0.1-0.4,0.2l-0.7-0.5l-0.4,0.2L76,7.5c-0.2,0.1-0.3,0.2-0.4,0.3L74.6,6.1z M75.1,6l0.1,0.1l0.2,0.4l0.5-0.2
					c0,0,0,0,0.1-0.1c0,0,0-0.1,0-0.1c0-0.2-0.1-0.5-0.4-0.4C75.4,5.9,75.3,5.9,75.1,6"/>
			</g>
		</g>
		<path class="st5" d="M0,37.9v-8h1.5c0.6,0,1.2,0,1.8,0.1c0.4,0.1,0.7,0.2,1,0.4C4.7,30.7,5,31,5.2,31.3c0.3,0.4,0.5,0.8,0.6,1.2
			c0.1,0.5,0.2,1,0.2,1.5c0,0.6-0.1,1.1-0.3,1.7c-0.1,0.4-0.3,0.7-0.6,1c-0.2,0.3-0.5,0.5-0.7,0.7c-0.4,0.2-0.8,0.4-1.2,0.5
			c-0.7,0.1-1.3,0.2-2,0.2L0,37.9z M0.8,30.6v6.6h0.9c0.5,0,1-0.1,1.5-0.2c0.4-0.1,0.7-0.3,1-0.5c0.3-0.3,0.6-0.6,0.8-1.1
			c0.2-0.5,0.3-1,0.3-1.6c0-0.4-0.1-0.8-0.2-1.3c-0.1-0.3-0.3-0.7-0.5-0.9c-0.2-0.2-0.4-0.5-0.6-0.6c-0.3-0.2-0.6-0.3-0.9-0.3
			c-0.4-0.1-0.9-0.1-1.4-0.1L0.8,30.6z"/>
		<path class="st5" d="M7.5,30.5v-1h0.8v1H7.5z M7.5,37.9v-5.8h0.7v5.8H7.5z"/>
		<path class="st5" d="M9.5,37.7L9.6,37c0.5,0.2,1,0.4,1.5,0.4c0.3,0,0.7-0.1,1-0.3c0.1-0.1,0.2-0.2,0.3-0.3
			c0.1-0.1,0.1-0.3,0.1-0.4c0-0.1,0-0.3-0.1-0.4c-0.1-0.1-0.2-0.3-0.3-0.3c-0.2-0.1-0.4-0.2-0.5-0.3c-0.9-0.4-1.4-0.7-1.6-0.9
			c-0.2-0.2-0.3-0.5-0.3-0.8c0-0.2,0-0.4,0.1-0.6c0.1-0.2,0.2-0.4,0.4-0.5c0.4-0.3,0.9-0.4,1.3-0.4c0.3,0,0.5,0,0.8,0.1
			c0.2,0,0.5,0.1,0.7,0.2l-0.1,0.7c-0.4-0.2-0.9-0.3-1.4-0.3c-0.3,0-0.6,0.1-0.9,0.3c-0.1,0.1-0.2,0.2-0.2,0.3
			c-0.1,0.1-0.1,0.2-0.1,0.3c0,0.1,0,0.3,0.1,0.4c0.1,0.2,0.3,0.3,0.5,0.4c0.1,0.1,0.4,0.2,0.9,0.4c0.5,0.2,0.9,0.5,1.1,0.7
			c0.2,0.2,0.3,0.6,0.3,0.9c0,0.2,0,0.4-0.1,0.6c-0.1,0.2-0.2,0.4-0.4,0.5c-0.4,0.4-1,0.5-1.7,0.5C10.5,38,10,37.9,9.5,37.7z"/>
		<path class="st5" d="M15,32.7h-1.2v-0.6H15v-1.5l0.7-0.3v1.7h1.4v0.6h-1.4v3.6c0,0.4,0.1,0.6,0.2,0.8c0.1,0.1,0.2,0.1,0.3,0.2
			c0.1,0,0.2,0.1,0.3,0c0.2,0,0.4-0.1,0.7-0.1l0,0.6C17,37.9,16.7,38,16.4,38c-0.2,0-0.4,0-0.5-0.1c-0.2-0.1-0.3-0.2-0.4-0.3
			C15.2,37.4,15,37,15,36.5L15,32.7z"/>
		<path class="st5" d="M19.1,37.9h-0.7v-4.8c0-0.3,0-0.6,0-1h0.7l0,1.3c0.1-0.4,0.4-0.8,0.7-1.1c0.3-0.2,0.6-0.3,0.9-0.3
			c0.2,0,0.3,0,0.5,0.1v0.8c-0.2,0-0.3-0.1-0.5-0.1c-0.2,0-0.4,0-0.6,0.1c-0.2,0.1-0.3,0.2-0.4,0.3c-0.1,0.1-0.2,0.3-0.3,0.5
			c-0.1,0.2-0.1,0.3-0.2,0.5c-0.1,0.3-0.1,0.6-0.1,0.9L19.1,37.9z"/>
		<path class="st5" d="M22.2,30.5v-1H23v1H22.2z M22.2,37.9v-5.8H23v5.8H22.2z"/>
		<path class="st5" d="M28.7,32.2L28.7,33c-0.4-0.2-0.8-0.3-1.3-0.3c-0.3,0-0.6,0-0.9,0.1c-0.3,0.1-0.5,0.3-0.7,0.5
			c-0.2,0.2-0.4,0.5-0.5,0.8s-0.2,0.6-0.1,0.9c0,0.4,0.1,0.8,0.3,1.2c0.2,0.4,0.4,0.7,0.8,0.9c0.3,0.2,0.7,0.3,1.2,0.3
			c0.4,0,0.9-0.1,1.3-0.3l0.1,0.7c-0.5,0.2-1,0.2-1.5,0.2c-0.4,0-0.8-0.1-1.1-0.2c-0.4-0.1-0.7-0.4-0.9-0.6
			c-0.5-0.5-0.8-1.3-0.8-2.2c0-0.5,0.1-1.1,0.4-1.6c0.2-0.4,0.6-0.8,1-1c0.5-0.2,1-0.4,1.5-0.4C27.8,32,28.3,32.1,28.7,32.2z"/>
		<path class="st5" d="M30.4,32.7h-1.2v-0.6h1.2v-1.5l0.7-0.3v1.7h1.4v0.6h-1.4v3.6c0,0.4,0.1,0.6,0.2,0.8c0.1,0.1,0.2,0.1,0.3,0.2
			c0.1,0,0.2,0.1,0.3,0c0.2,0,0.4-0.1,0.7-0.1l0,0.6C32.3,37.9,32,38,31.7,38c-0.2,0-0.4,0-0.5-0.1c-0.2-0.1-0.3-0.2-0.4-0.3
			c-0.2-0.2-0.4-0.6-0.4-1.1L30.4,32.7z"/>
		<path class="st5" d="M36.6,37.6l0.1-0.8c0.3,0.1,0.6,0.2,0.9,0.3c0.3,0.1,0.7,0.1,1,0.1c0.7,0,1.2-0.2,1.6-0.5
			c0.2-0.1,0.3-0.3,0.4-0.5c0.1-0.2,0.1-0.4,0.2-0.6c0-0.3-0.1-0.6-0.2-0.8c-0.2-0.2-0.4-0.4-0.7-0.5c-0.3-0.1-0.7-0.2-1.3-0.2h-0.7
			v-0.7h0.4c0.4,0,0.9,0,1.3-0.1c0.2-0.1,0.5-0.1,0.7-0.3c0.2-0.1,0.3-0.3,0.4-0.5c0.1-0.2,0.2-0.4,0.2-0.6c0-0.2,0-0.3-0.1-0.5
			c-0.1-0.1-0.2-0.3-0.3-0.4c-0.3-0.3-0.8-0.5-1.5-0.5c-0.6,0-1.2,0.1-1.8,0.4L37,30.3c0.3-0.1,0.6-0.2,0.9-0.3
			c0.4-0.1,0.7-0.1,1.1-0.1c0.6,0,1.2,0.1,1.6,0.4c0.6,0.4,0.9,0.9,0.9,1.6c0,0.3,0,0.5-0.2,0.7c-0.1,0.2-0.2,0.4-0.4,0.6
			c-0.1,0.1-0.3,0.3-0.5,0.4c-0.2,0.1-0.4,0.2-0.7,0.2c0.3,0,0.7,0.2,0.9,0.3c0.3,0.2,0.5,0.4,0.6,0.7c0.2,0.3,0.2,0.7,0.2,1
			c0,0.4-0.1,0.7-0.3,1c-0.3,0.4-0.6,0.7-1,0.8c-0.5,0.2-1.1,0.3-1.7,0.3c-0.3,0-0.7,0-1-0.1C37.2,37.8,36.9,37.7,36.6,37.6z"/>
		<path class="st5" d="M43.4,37.7l0-0.8c0.2,0.1,0.5,0.2,0.7,0.3c0.3,0.1,0.6,0.1,0.9,0.1c0.4,0,0.8-0.1,1.2-0.2
			c0.3-0.2,0.6-0.4,0.7-0.7c0.2-0.3,0.3-0.7,0.3-1c0-0.2,0-0.5-0.1-0.7c-0.1-0.2-0.2-0.4-0.4-0.6c-0.3-0.3-0.9-0.5-1.5-0.5
			c-0.3,0-0.7,0-1,0.1c-0.3,0-0.5,0.1-0.8,0.2l0.1-4h4.1v0.7h-3.4l-0.1,2.5c0.4-0.1,0.8-0.2,1.2-0.2c0.8,0,1.5,0.2,1.9,0.7
			c0.2,0.2,0.4,0.5,0.5,0.8c0.1,0.3,0.2,0.6,0.2,0.9c0,0.3,0,0.7-0.2,1c-0.1,0.3-0.3,0.6-0.6,0.9c-0.5,0.5-1.3,0.7-2.2,0.7
			C44.6,38,44,37.9,43.4,37.7z"/>
		<path class="st5" d="M50.4,37.2h3.8v0.7h-4.8v-0.6l2-2.2c0.4-0.4,0.7-0.8,1-1.3c0.3-0.3,0.5-0.7,0.6-1.1c0.1-0.2,0.1-0.4,0.1-0.7
			c0-0.2,0-0.4-0.1-0.6c-0.1-0.2-0.2-0.3-0.3-0.5c-0.3-0.3-0.7-0.4-1.1-0.4c-0.3,0-0.6,0.1-0.9,0.2c-0.3,0.1-0.6,0.2-0.9,0.4
			l-0.1-0.8c0.3-0.2,0.7-0.3,1-0.4c0.3-0.1,0.7-0.2,1.1-0.2c0.8,0,1.3,0.2,1.7,0.6c0.4,0.4,0.6,0.9,0.6,1.4c0,0.4-0.1,0.9-0.3,1.2
			c-0.3,0.6-0.7,1.1-1.1,1.6C52,35.6,51.2,36.4,50.4,37.2z"/>
		<path class="st5" d="M56.8,37.2h3.8v0.7h-4.8v-0.6l2-2.2c0.4-0.4,0.7-0.8,1-1.3c0.3-0.3,0.5-0.7,0.6-1.1c0.1-0.2,0.1-0.4,0.1-0.7
			c0-0.2,0-0.4-0.1-0.6c-0.1-0.2-0.2-0.3-0.3-0.5c-0.3-0.3-0.7-0.4-1.1-0.4c-0.3,0-0.6,0.1-0.9,0.2c-0.3,0.1-0.6,0.2-0.9,0.4
			l-0.1-0.8c0.3-0.2,0.7-0.3,1-0.4c0.3-0.1,0.7-0.2,1.1-0.2c0.8,0,1.3,0.2,1.7,0.6c0.4,0.4,0.6,0.9,0.6,1.4c0,0.4-0.1,0.9-0.3,1.2
			c-0.3,0.6-0.7,1.1-1.1,1.6C58.4,35.6,57.6,36.4,56.8,37.2z"/>
	</g>
</g>
</svg>
