<svg width="37" height="37" viewBox="0 0 37 37" fill="none" xmlns="http://www.w3.org/2000/svg">
<path d="M18.4886 27.9513C24.1116 27.9513 28.67 23.3929 28.67 17.7698C28.67 12.1468 24.1116 7.58838 18.4886 7.58838C12.8655 7.58838 8.30713 12.1468 8.30713 17.7698C8.30713 23.3929 12.8655 27.9513 18.4886 27.9513Z" stroke="white" stroke-width="2"/>
<path d="M26.356 25.6375L30.0898 29.1214" stroke="white" stroke-width="2" stroke-linecap="round"/>
<path d="M18.833 14.7605L18.833 21.573" stroke="white" stroke-width="2" stroke-linecap="round"/>
<path d="M18.833 14.7605L18.833 21.573" stroke="white" stroke-width="2" stroke-linecap="round"/>
<path d="M18.833 14.7605L18.833 21.573" stroke="white" stroke-width="2" stroke-linecap="round"/>
<path d="M18.833 14.7605L18.833 21.573" stroke="white" stroke-width="2" stroke-linecap="round"/>
<path d="M15.4268 18.1667H22.2393" stroke="white" stroke-width="2" stroke-linecap="round"/>
<path d="M15.4268 18.1667H22.2393" stroke="white" stroke-width="2" stroke-linecap="round"/>
<path d="M15.4268 18.1667H22.2393" stroke="white" stroke-width="2" stroke-linecap="round"/>
<path d="M15.4268 18.1667H22.2393" stroke="white" stroke-width="2" stroke-linecap="round"/>
</svg>
