<?xml version="1.0" encoding="utf-8"?>
<!-- Generator: Adobe Illustrator 28.0.0, SVG Export Plug-In . SVG Version: 6.00 Build 0)  -->
<svg version="1.1" id="圖層_1" xmlns="http://www.w3.org/2000/svg" xmlns:xlink="http://www.w3.org/1999/xlink" x="0px" y="0px"
	 viewBox="0 0 20 20" style="enable-background:new 0 0 20 20;" xml:space="preserve">
<style type="text/css">
	.st0{clip-path:url(#SVGID_00000119081344904926975590000003938971820038489499_);}
	.st1{fill:none;stroke:#161819;}
	.st2{fill:#161819;}
</style>
<g>
	<defs>
		<rect id="SVGID_1_" y="0" width="20" height="20"/>
	</defs>
	<clipPath id="SVGID_00000117637238262094486060000011400142843137208451_">
		<use xlink:href="#SVGID_1_"  style="overflow:visible;"/>
	</clipPath>
	<g style="clip-path:url(#SVGID_00000117637238262094486060000011400142843137208451_);">
		<path class="st1" d="M10,3.7c1.3,0,2.5,0.5,3.5,1.4s1.4,2.2,1.4,3.5c0,1.4-0.6,3.3-1.5,5c-0.5,0.8-1,1.5-1.6,2
			c-0.6,0.5-1.2,0.7-1.8,0.7c-0.6,0-1.2-0.3-1.8-0.7c-0.6-0.5-1.1-1.2-1.6-2c-0.9-1.6-1.5-3.6-1.5-5c0-1.3,0.5-2.5,1.4-3.5
			S8.7,3.7,10,3.7z"/>
		<path class="st1" d="M10,3.7c-2.7,0-4.9,2.2-4.9,4.9C5.1,5.9,7.3,3.7,10,3.7z M10,3.7c2.7,0,4.9,2.2,4.9,4.9
			C14.9,5.9,12.7,3.7,10,3.7z M6.6,13.5c-0.7-1.3-1.2-2.7-1.4-4C5.4,10.9,5.9,12.3,6.6,13.5z M13.4,13.5c0.7-1.2,1.2-2.7,1.4-4
			C14.6,10.8,14.1,12.3,13.4,13.5z"/>
		<path class="st2" d="M10,8.7c0.6,0,1-0.4,1-1c0-0.6-0.4-1-1-1c-0.6,0-1,0.4-1,1C9,8.3,9.4,8.7,10,8.7z"/>
	</g>
</g>
</svg>
