<?xml version="1.0" encoding="utf-8"?>
<!-- Generator: Adobe Illustrator 28.0.0, SVG Export Plug-In . SVG Version: 6.00 Build 0)  -->
<svg version="1.1" id="圖層_1" xmlns="http://www.w3.org/2000/svg" xmlns:xlink="http://www.w3.org/1999/xlink" x="0px" y="0px"
	 viewBox="0 0 40 40" style="enable-background:new 0 0 40 40;" xml:space="preserve">
<style type="text/css">
	.st0{fill:#FFFFFF;}
	.st1{fill:none;stroke:#00559E;stroke-width:2;stroke-linecap:round;stroke-linejoin:round;}
	.st2{fill:#00559E;stroke:#00559E;stroke-width:2;stroke-linecap:round;stroke-linejoin:round;}
</style>
<path class="st0" d="M40,0H0v40h40V0z"/>
<path class="st1" d="M9.2,15.4l15.1,15.2 M9.2,15.4c0.6-0.7,1.4-1.1,2.3-1.1h5.1 M9.2,15.4c-0.5,0.5-0.7,1.2-0.7,2v11.2
	c0,1.7,1.4,3.1,3.1,3.1h11.2c1.7,0,3.1-1.4,3.1-3.1v-2.1 M16.7,24l-6.6,6.6"/>
<path class="st2" d="M25.8,22.3c0,0,6.7-6,6.7-10.6c0-3.7-3-6.7-6.7-6.7s-6.7,3-6.7,6.8C19.2,16.3,25.8,22.3,25.8,22.3z"/>
<path class="st0" d="M25.8,7.7c0.1,0,0.2,0.1,0.3,0.2l0.5,1.2c0.1,0.1,0.2,0.2,0.3,0.2l1.2,0.2c0.3,0,0.4,0.4,0.2,0.6l-0.8,0.8
	c-0.1,0.1-0.1,0.2-0.1,0.3l0.2,1.3c0.1,0.3-0.2,0.5-0.5,0.4L26,12.3c-0.1-0.1-0.2-0.1-0.3,0L24.6,13c-0.3,0.1-0.6-0.1-0.5-0.4
	l0.2-1.3c0-0.1,0-0.3-0.1-0.3l-0.9-0.9c-0.2-0.2-0.1-0.6,0.2-0.6l1.2-0.2c0.1,0,0.2-0.1,0.3-0.2l0.5-1.2C25.6,7.7,25.7,7.7,25.8,7.7
	z"/>
</svg>
