<?xml version="1.0" encoding="utf-8"?>
<!-- Generator: Adobe Illustrator 28.0.0, SVG Export Plug-In . SVG Version: 6.00 Build 0)  -->
<svg version="1.1" id="圖層_1" xmlns="http://www.w3.org/2000/svg" xmlns:xlink="http://www.w3.org/1999/xlink" x="0px" y="0px"
	 viewBox="0 0 24 25" style="enable-background:new 0 0 24 25;" xml:space="preserve">
<style type="text/css">
	.st0{fill:none;stroke:#161819;stroke-width:1.5;stroke-linecap:round;stroke-linejoin:round;}
	.st1{fill:#161819;}
	.st2{fill:#FFFFFF;}
</style>
<path class="st0" d="M3.5,9.8l11.3,11.4 M3.5,9.8C4,9.3,4.6,9,5.3,9h3.8 M3.5,9.8C3.2,10.2,3,10.7,3,11.3v8.4C3,21,4,22,5.3,22h8.4
	c1.3,0,2.3-1,2.3-2.3v-1.6 M9.1,16.3l-5,5"/>
<path class="st1" d="M16,15c0,0,5-4.5,5-7.9C21,4.3,18.8,2,16,2s-5,2.3-5,5.1C11,10.5,16,15,16,15z"/>
<path class="st2" d="M16,4c0.1,0,0.2,0.1,0.2,0.2L16.6,5c0,0.1,0.1,0.1,0.2,0.2l0.9,0.1c0.2,0,0.3,0.3,0.1,0.5l-0.7,0.7
	c-0.1,0.1-0.1,0.2-0.1,0.3l0.2,0.9c0,0.2-0.2,0.4-0.4,0.3l-0.8-0.5c-0.1,0-0.2,0-0.2,0L15,8c-0.2,0.1-0.4-0.1-0.4-0.3l0.2-0.9
	c0-0.1,0-0.2-0.1-0.3l-0.7-0.7c-0.2-0.2-0.1-0.5,0.1-0.5l0.9-0.1c0.1,0,0.2-0.1,0.2-0.2l0.4-0.9C15.8,4.1,15.9,4,16,4z"/>
</svg>
