<?xml version="1.0" encoding="utf-8"?>
<!-- Generator: Adobe Illustrator 28.0.0, SVG Export Plug-In . SVG Version: 6.00 Build 0)  -->
<svg version="1.1" id="圖層_1" xmlns="http://www.w3.org/2000/svg" xmlns:xlink="http://www.w3.org/1999/xlink" x="0px" y="0px"
	 viewBox="0 0 24 25" style="enable-background:new 0 0 24 25;" xml:space="preserve">
<path d="M2,12c0-1.2,0.5-2.3,1.3-3.2c0.8-0.8,2-1.3,3.2-1.3h3.7c0.3,0,5-0.4,9.6-4.1C20,3.2,20.3,3.1,20.6,3c0.3,0,0.6,0,0.8,0.1
	c0.3,0.1,0.5,0.3,0.6,0.6c0.2,0.2,0.2,0.5,0.2,0.8v15c0,0.3-0.1,0.6-0.2,0.8c-0.2,0.2-0.4,0.4-0.6,0.6C21.1,21,20.8,21,20.6,21
	c-0.3,0-0.5-0.2-0.8-0.3c-3.5-3-7.2-3.8-8.8-4.1v3c0,0.2-0.1,0.5-0.2,0.7c-0.1,0.2-0.3,0.4-0.5,0.5l-1,0.7c-0.2,0.1-0.4,0.2-0.7,0.2
	c-0.2,0-0.5,0-0.7-0.1c-0.2-0.1-0.4-0.2-0.6-0.4c-0.2-0.2-0.3-0.4-0.3-0.6l-1.1-4.2c-1.1-0.1-2.1-0.7-2.8-1.5C2.4,14.1,2,13.1,2,12z
	 M20.8,19.5v-15c-4,3.4-8.1,4.2-9.8,4.4v6.1C12.6,15.3,16.7,16.1,20.8,19.5z M8.5,20.2L8.5,20.2l1-0.7v-3.1h-2L8.5,20.2z M6.5,15h3
	V9h-3C5.7,9,4.9,9.3,4.4,9.9c-0.6,0.6-0.9,1.3-0.9,2.1c0,0.8,0.3,1.6,0.9,2.1S5.7,15,6.5,15z"/>
</svg>
