<?xml version="1.0" encoding="utf-8"?>
<!-- Generator: Adobe Illustrator 28.0.0, SVG Export Plug-In . SVG Version: 6.00 Build 0)  -->
<svg version="1.1" id="圖層_1" xmlns="http://www.w3.org/2000/svg" xmlns:xlink="http://www.w3.org/1999/xlink" x="0px" y="0px"
	 viewBox="0 0 10 17" style="enable-background:new 0 0 10 17;" xml:space="preserve">
<style type="text/css">
	.st0{fill:#DAB866;stroke:#DAB866;}
</style>
<path class="st0" d="M1.6,15.9c-0.1,0-0.2,0-0.3-0.1c-0.1-0.1-0.2-0.1-0.2-0.3c0-0.1-0.1-0.2,0-0.3c0-0.1,0.1-0.2,0.2-0.3l6.5-6.5
	L1.2,2C1.1,1.9,1,1.8,1,1.6c0-0.1,0.1-0.3,0.2-0.4c0.1-0.1,0.2-0.2,0.4-0.2S1.8,1.1,2,1.2l6.9,6.9C8.9,8.2,8.9,8.2,9,8.3
	c0,0.1,0,0.1,0,0.2c0,0.1,0,0.1,0,0.2c0,0.1-0.1,0.1-0.1,0.2L2,15.8c-0.1,0.1-0.1,0.1-0.2,0.1C1.7,15.9,1.6,15.9,1.6,15.9z"/>
</svg>
