<?xml version="1.0" encoding="utf-8"?>
<!-- Generator: Adobe Illustrator 28.0.0, SVG Export Plug-In . SVG Version: 6.00 Build 0)  -->
<svg version="1.1" id="圖層_1" xmlns="http://www.w3.org/2000/svg" xmlns:xlink="http://www.w3.org/1999/xlink" x="0px" y="0px"
	 viewBox="0 0 24 25" style="enable-background:new 0 0 24 25;" xml:space="preserve">
<style type="text/css">
	.st0{fill:#161819;}
</style>
<path class="st0" d="M19.5,3.5h-15c-0.4,0-0.8,0.2-1.1,0.4S3,4.6,3,5v15c0,0.4,0.2,0.8,0.4,1.1s0.7,0.4,1.1,0.4h15
	c0.4,0,0.8-0.2,1.1-0.4S21,20.4,21,20V5c0-0.4-0.2-0.8-0.4-1.1S19.9,3.5,19.5,3.5z M18,10.2h1.5v4.5H18V10.2z M19.5,8.7H18V5h1.5
	V8.7z M4.5,5h12v15h-12V5z M19.5,20H18v-3.8h1.5V20z M14.2,16.1c-0.2-0.9-0.8-1.7-1.6-2.2c0.4-0.4,0.7-1,0.8-1.5
	c0.1-0.6,0.1-1.2-0.2-1.7c-0.2-0.5-0.6-1-1.1-1.3c-0.5-0.3-1.1-0.5-1.7-0.5S9.3,8.9,8.8,9.3C8.3,9.6,8,10.1,7.7,10.6
	c-0.2,0.5-0.3,1.2-0.2,1.7c0.1,0.6,0.4,1.1,0.8,1.5c-0.8,0.5-1.4,1.3-1.6,2.2c0,0.2,0,0.4,0.1,0.6s0.3,0.3,0.5,0.3
	c0.2,0,0.4,0,0.6-0.1c0.2-0.1,0.3-0.3,0.3-0.5c0.2-1,1.2-1.7,2.3-1.7c1,0,2,0.7,2.3,1.7c0,0.2,0.2,0.4,0.3,0.5
	c0.2,0.1,0.4,0.1,0.6,0.1c0.2,0,0.4-0.2,0.5-0.3S14.3,16.3,14.2,16.1z M9,11.7c0-0.3,0.1-0.6,0.3-0.8c0.2-0.2,0.4-0.4,0.7-0.6
	c0.3-0.1,0.6-0.1,0.9-0.1c0.3,0.1,0.6,0.2,0.8,0.4c0.2,0.2,0.4,0.5,0.4,0.8c0.1,0.3,0,0.6-0.1,0.9c-0.1,0.3-0.3,0.5-0.6,0.7
	c-0.2,0.2-0.5,0.3-0.8,0.3c-0.4,0-0.8-0.2-1.1-0.4C9.2,12.5,9,12.1,9,11.7z"/>
</svg>
