<?xml version="1.0" encoding="utf-8"?>
<!-- Generator: Adobe Illustrator 28.0.0, SVG Export Plug-In . SVG Version: 6.00 Build 0)  -->
<svg version="1.1" id="圖層_1" xmlns="http://www.w3.org/2000/svg" xmlns:xlink="http://www.w3.org/1999/xlink" x="0px" y="0px"
	 viewBox="0 0 24 25" style="enable-background:new 0 0 24 25;" xml:space="preserve">
<style type="text/css">
	.st0{fill:#161819;}
</style>
<path class="st0" d="M21,7.2c-0.2,0.1-0.4,0.1-0.6,0C20.2,7.2,20.1,7,20,6.8c-0.7-1.4-1.8-2.6-3.1-3.5c-0.1-0.1-0.2-0.1-0.2-0.2
	c-0.1-0.1-0.1-0.2-0.1-0.3c0-0.1,0-0.2,0-0.3c0-0.1,0.1-0.2,0.1-0.3c0.1-0.1,0.1-0.2,0.2-0.2C16.9,2.1,17,2,17.1,2
	c0.1,0,0.2,0,0.3,0c0.1,0,0.2,0.1,0.3,0.1c1.6,1,2.8,2.4,3.7,4c0.1,0.2,0.1,0.4,0,0.6C21.3,6.9,21.2,7.1,21,7.2z M3.3,7.3
	c0.1,0,0.3,0,0.4-0.1C3.9,7.1,4,7,4,6.8c0.7-1.4,1.8-2.6,3.1-3.5c0.2-0.1,0.3-0.3,0.3-0.5c0-0.2,0-0.4-0.1-0.6
	C7.3,2.2,7.1,2.1,6.9,2C6.7,2,6.5,2,6.3,2.1c-1.6,1-2.8,2.4-3.7,4C2.6,6.3,2.6,6.4,2.6,6.5c0,0.1,0,0.3,0.1,0.4C2.8,7,2.9,7.1,3,7.2
	C3.1,7.2,3.2,7.2,3.3,7.3z M20.8,17c0.1,0.2,0.2,0.5,0.2,0.8c0,0.3-0.1,0.5-0.2,0.8c-0.1,0.2-0.3,0.4-0.5,0.6
	c-0.2,0.1-0.5,0.2-0.8,0.2h-3.8c-0.2,0.8-0.6,1.6-1.3,2.2c-0.7,0.5-1.5,0.8-2.4,0.8s-1.7-0.3-2.4-0.8c-0.7-0.5-1.1-1.3-1.3-2.2H4.5
	c-0.3,0-0.5-0.1-0.8-0.2s-0.4-0.3-0.5-0.6C3.1,18.3,3,18,3,17.7s0.1-0.5,0.2-0.8c0.8-1.5,1.3-3.5,1.3-6c0-2,0.8-3.9,2.2-5.3
	C8.1,4.3,10,3.5,12,3.5s3.9,0.8,5.3,2.2S19.5,9,19.5,11C19.5,13.5,19.9,15.5,20.8,17z M14.1,19.2H9.9c0.2,0.4,0.4,0.8,0.8,1.1
	c0.4,0.3,0.8,0.4,1.3,0.4c0.5,0,0.9-0.1,1.3-0.4C13.7,20.1,14,19.7,14.1,19.2z M19.5,17.7c-1-1.7-1.5-4-1.5-6.7
	c0-1.6-0.6-3.1-1.8-4.2C15.1,5.6,13.6,5,12,5S8.9,5.6,7.8,6.8S6,9.4,6,11c0,2.8-0.5,5-1.5,6.7H19.5z"/>
</svg>
