<?xml version="1.0" encoding="utf-8"?>
<!-- Generator: Adobe Illustrator 28.0.0, SVG Export Plug-In . SVG Version: 6.00 Build 0)  -->
<svg version="1.1" id="圖層_1" xmlns="http://www.w3.org/2000/svg" xmlns:xlink="http://www.w3.org/1999/xlink" x="0px" y="0px"
	 viewBox="0 0 24 25" style="enable-background:new 0 0 24 25;" xml:space="preserve">
<style type="text/css">
	.st0{fill:#161819;}
</style>
<path class="st0" d="M20.2,5H3.8C3.4,5,3,5.2,2.7,5.4C2.4,5.7,2.3,6.1,2.3,6.5v15c0,0.3,0.1,0.6,0.2,0.8c0.2,0.2,0.4,0.4,0.6,0.6
	C3.3,23,3.5,23,3.8,23c0.4,0,0.7-0.1,1-0.4l0,0L7.8,20h12.5c0.4,0,0.8-0.2,1.1-0.4s0.4-0.7,0.4-1.1v-12c0-0.4-0.2-0.8-0.4-1.1
	S20.6,5,20.2,5z M20.2,18.5H7.5c-0.2,0-0.4,0.1-0.5,0.2l-3.3,2.8v-15h16.5V18.5z M8.3,11c0-0.2,0.1-0.4,0.2-0.5
	c0.1-0.1,0.3-0.2,0.5-0.2h6c0.2,0,0.4,0.1,0.5,0.2c0.1,0.1,0.2,0.3,0.2,0.5s-0.1,0.4-0.2,0.5c-0.1,0.1-0.3,0.2-0.5,0.2H9
	c-0.2,0-0.4-0.1-0.5-0.2C8.3,11.4,8.3,11.2,8.3,11z M8.3,14c0-0.2,0.1-0.4,0.2-0.5c0.1-0.1,0.3-0.2,0.5-0.2h6c0.2,0,0.4,0.1,0.5,0.2
	c0.1,0.1,0.2,0.3,0.2,0.5s-0.1,0.4-0.2,0.5c-0.1,0.1-0.3,0.2-0.5,0.2H9c-0.2,0-0.4-0.1-0.5-0.2C8.3,14.4,8.3,14.2,8.3,14z"/>
</svg>
