<?xml version="1.0" encoding="utf-8"?>
<!-- Generator: Adobe Illustrator 28.0.0, SVG Export Plug-In . SVG Version: 6.00 Build 0)  -->
<svg version="1.1" id="圖層_1" xmlns="http://www.w3.org/2000/svg" xmlns:xlink="http://www.w3.org/1999/xlink" x="0px" y="0px"
	 viewBox="0 0 24 25" style="enable-background:new 0 0 24 25;" xml:space="preserve">
<path d="M22.2,9.9c0.2,0,0.4-0.1,0.6-0.2C22.9,9.6,23,9.4,23,9.2V6.4c0-0.4-0.2-0.7-0.5-1C22.2,5.1,21.8,5,21.4,5H2.6
	C2.2,5,1.8,5.1,1.5,5.4S1,6,1,6.4c0,3.7,0,7.5,0,11.2c0,0.4,0.2,0.7,0.5,1C1.8,18.9,2.2,19,2.6,19h18.9c0.4,0,0.8-0.1,1.1-0.4
	c0.3-0.3,0.5-0.6,0.5-1v-2.8c0-0.2-0.1-0.4-0.2-0.5c-0.1-0.1-0.3-0.2-0.6-0.2c-0.6,0-1.2-0.2-1.7-0.6c-0.4-0.4-0.7-0.9-0.7-1.5
	s0.2-1.1,0.7-1.5C21,10.1,21.6,9.9,22.2,9.9z M2.6,6.4h5.5v11.2H2.6C2.6,12.5,2.6,10.4,2.6,6.4z M21.4,15.4v2.2H9.6V6.4h11.8v2.2
	c-0.9,0.2-1.7,0.6-2.3,1.2c-0.6,0.6-0.9,1.4-0.9,2.2s0.3,1.6,0.9,2.2S20.5,15.3,21.4,15.4z"/>
</svg>
