<svg width="24" height="25" viewBox="0 0 24 25" fill="none" xmlns="http://www.w3.org/2000/svg">
<path d="M16.5 7L15 4H8" stroke="black" stroke-opacity="0.8" stroke-width="1.5" stroke-linejoin="round"/>
<path d="M21 18.3C21 18.7774 20.8104 19.2352 20.4728 19.5728C20.1352 19.9104 19.6774 20.1 19.2 20.1H4.8C4.32261 20.1 3.86477 19.9104 3.52721 19.5728C3.18964 19.2352 3 18.7774 3 18.3V5.70002C3 5.22263 3.18964 4.7648 3.52721 4.42723C3.86477 4.08967 4.32261 3.90002 4.8 3.90002H9.3L11.1 6.60002H19.2C19.6774 6.60002 20.1352 6.78967 20.4728 7.12723C20.8104 7.4648 21 7.92263 21 8.40002V18.3Z" stroke="black" stroke-width="1.5" stroke-linecap="round" stroke-linejoin="round"/>
</svg>
