<?xml version="1.0" encoding="utf-8"?>
<!-- Generator: Adobe Illustrator 28.0.0, SVG Export Plug-In . SVG Version: 6.00 Build 0)  -->
<svg version="1.1" id="圖層_1" xmlns="http://www.w3.org/2000/svg" xmlns:xlink="http://www.w3.org/1999/xlink" x="0px" y="0px"
	 viewBox="0 0 40 40" style="enable-background:new 0 0 40 40;" xml:space="preserve">
<style type="text/css">
	.st0{fill:#FFFFFF;}
	.st1{fill:#00559E;stroke:#00559E;stroke-width:2;stroke-linecap:round;stroke-linejoin:round;}
	.st2{clip-path:url(#SVGID_00000013889112580233110470000009676646248131633583_);}
	.st3{opacity:0.16;fill:#FFFFFF;enable-background:new    ;}
	.st4{opacity:4.000000e-02;fill:#FFFFFF;enable-background:new    ;}
</style>
<g id="Group_34" transform="translate(-296 -1104)">
	<rect id="Rectangle_31" x="296" y="1104" class="st0" width="40" height="40"/>
	<g id="icon_工作區域_1_複本_3" transform="translate(306 1111)">
		<ellipse id="Ellipse_6" class="st1" cx="9.5" cy="4.9" rx="4.9" ry="4.9"/>
		<path id="Path_307" class="st1" d="M19.3,25.1v-7.8c0-2.3-1.8-4.1-4.1-4.1H4.1C1.8,13.2,0,15,0,17.3v7.8L19.3,25.1z"/>
	</g>
	<g>
		<defs>
			<path id="SVGID_1_" d="M326.3,1136.8v-8.9c0-2.5-2-4.6-4.5-4.7h-12.2c-2.5,0-4.6,2.1-4.5,4.7v8.9L326.3,1136.8z"/>
		</defs>
		<clipPath id="SVGID_00000106142703484636948960000015345805446590258590_">
			<use xlink:href="#SVGID_1_"  style="overflow:visible;"/>
		</clipPath>
		<g id="Mask_Group_7" style="clip-path:url(#SVGID_00000106142703484636948960000015345805446590258590_);">
			<g id="Group_971" transform="matrix(0.407, 0.914, -0.914, 0.407, 1230.064, 366.169)">
				<circle id="Ellipse_12" class="st3" cx="318.5" cy="1138.5" r="9.5"/>
				<circle id="Ellipse_13" class="st4" cx="329.5" cy="1131.5" r="11.5"/>
			</g>
		</g>
	</g>
</g>
</svg>
