<?xml version="1.0" encoding="utf-8"?>
<!-- Generator: Adobe Illustrator 28.0.0, SVG Export Plug-In . SVG Version: 6.00 Build 0)  -->
<svg version="1.1" id="圖層_1" xmlns="http://www.w3.org/2000/svg" xmlns:xlink="http://www.w3.org/1999/xlink" x="0px" y="0px"
	 viewBox="0 0 24 25" style="enable-background:new 0 0 24 25;" xml:space="preserve">
<path d="M19.5,3h-12C7.1,3,6.7,3.2,6.4,3.4S6,4.1,6,4.5V6H4.5C4.1,6,3.7,6.2,3.4,6.4S3,7.1,3,7.5v12c0,0.4,0.2,0.8,0.4,1.1
	S4.1,21,4.5,21h12c0.4,0,0.8-0.2,1.1-0.4s0.4-0.7,0.4-1.1V18h1.5c0.4,0,0.8-0.2,1.1-0.4s0.4-0.7,0.4-1.1v-12c0-0.4-0.2-0.8-0.4-1.1
	S19.9,3,19.5,3z M7.5,4.5h12V11l-1.6-1.6C17.7,9.2,17.3,9,16.9,9c-0.4,0-0.8,0.2-1.1,0.4l-7.1,7.1H7.5V4.5z M16.5,19.5h-12v-12H6v9
	c0,0.4,0.2,0.8,0.4,1.1S7.1,18,7.5,18h9V19.5z M19.5,16.5h-8.6l6-6l2.6,2.6V16.5z M11.2,10.5c0.4,0,0.9-0.1,1.2-0.4
	c0.4-0.2,0.7-0.6,0.8-1c0.2-0.4,0.2-0.9,0.1-1.3c-0.1-0.4-0.3-0.8-0.6-1.2c-0.3-0.3-0.7-0.5-1.2-0.6c-0.4-0.1-0.9,0-1.3,0.1
	C10,6.3,9.6,6.6,9.4,7C9.1,7.4,9,7.8,9,8.2c0,0.6,0.2,1.2,0.7,1.6C10.1,10.3,10.7,10.5,11.2,10.5z M11.2,7.5c0.1,0,0.3,0,0.4,0.1
	c0.1,0.1,0.2,0.2,0.3,0.3C12,8.1,12,8.3,12,8.4c0,0.1-0.1,0.3-0.2,0.4C11.7,8.9,11.5,9,11.4,9c-0.1,0-0.3,0-0.4,0
	c-0.1-0.1-0.3-0.2-0.3-0.3c-0.1-0.1-0.1-0.3-0.1-0.4c0-0.2,0.1-0.4,0.2-0.5C10.9,7.6,11.1,7.5,11.2,7.5z"/>
</svg>
