<?xml version="1.0" encoding="utf-8"?>
<!-- Generator: Adobe Illustrator 28.0.0, SVG Export Plug-In . SVG Version: 6.00 Build 0)  -->
<svg version="1.1" id="圖層_1" xmlns="http://www.w3.org/2000/svg" xmlns:xlink="http://www.w3.org/1999/xlink" x="0px" y="0px"
	 viewBox="0 0 24 25" style="enable-background:new 0 0 24 25;" xml:space="preserve">
<style type="text/css">
	.st0{fill:#161819;}
	.st1{fill:none;stroke:#161819;stroke-width:1.5;stroke-linecap:round;}
</style>
<path class="st0" d="M21.8,13v-3c0-0.1,0-0.2-0.1-0.3c0-0.1-0.1-0.2-0.2-0.2l-5.2-5.3c-0.1-0.1-0.2-0.1-0.2-0.2
	C15.9,4,15.8,4,15.8,4h-12C3.4,4,3,4.2,2.7,4.4S2.2,5.1,2.2,5.5V13c0,0.2,0.1,0.4,0.2,0.5c0.1,0.1,0.3,0.2,0.5,0.2s0.4-0.1,0.5-0.2
	c0.1-0.1,0.2-0.3,0.2-0.5V5.5H15V10c0,0.2,0.1,0.4,0.2,0.5c0.1,0.1,0.3,0.2,0.5,0.2h4.5V13c0,0.2,0.1,0.4,0.2,0.5
	c0.1,0.1,0.3,0.2,0.5,0.2s0.4-0.1,0.5-0.2C21.7,13.4,21.8,13.2,21.8,13z M16.5,6.6l2.7,2.7h-2.7V6.6z"/>
<path class="st0" d="M10.9,17.1c0.4-0.4,0.7-1,0.8-1.5c0.1-0.6,0.1-1.2-0.2-1.7c-0.2-0.5-0.6-1-1.1-1.3C9.9,12.2,9.3,12,8.7,12
	c-0.6,0-1.2,0.2-1.7,0.5c-0.5,0.3-0.9,0.8-1.1,1.3c-0.2,0.5-0.3,1.2-0.2,1.7c0.1,0.6,0.4,1.1,0.8,1.5c-0.8,0.5-1.4,1.3-1.6,2.2
	c-0.1,0.2,0,0.4,0.1,0.6c0.1,0.2,0.3,0.3,0.5,0.3c0.1,0,0.1,0,0.2,0c0.2,0,0.3-0.1,0.5-0.2c0.1-0.1,0.2-0.2,0.3-0.4
	c0.3-1,1.2-1.7,2.3-1.7c1.1,0,2,0.7,2.3,1.7c0,0.1,0.1,0.2,0.1,0.3c0.1,0.1,0.1,0.1,0.2,0.2c0.1,0.1,0.2,0.1,0.3,0.1
	c0.1,0,0.2,0,0.3,0c0.1,0,0.2-0.1,0.3-0.1c0.1-0.1,0.1-0.1,0.2-0.2c0-0.1,0.1-0.2,0.1-0.3c0-0.1,0-0.2,0-0.3
	C12.2,18.4,11.7,17.6,10.9,17.1z M8.7,13.5c0.3,0,0.6,0.1,0.8,0.3c0.2,0.2,0.4,0.4,0.6,0.7c0.1,0.3,0.1,0.6,0.1,0.9
	c-0.1,0.3-0.2,0.6-0.4,0.8c-0.2,0.2-0.5,0.4-0.8,0.4c-0.3,0.1-0.6,0-0.9-0.1c-0.3-0.1-0.5-0.3-0.7-0.6c-0.2-0.2-0.3-0.5-0.3-0.8
	c0-0.4,0.2-0.8,0.4-1.1C8,13.7,8.4,13.5,8.7,13.5z"/>
<path class="st1" d="M15,15.2h3"/>
<path class="st1" d="M15,18h5"/>
</svg>
