<svg width="24" height="25" viewBox="0 0 24 25" fill="none" xmlns="http://www.w3.org/2000/svg">
<path d="M6.99997 4H4.99999C4.46956 4 3.96085 4.21071 3.58578 4.58579C3.21071 4.96086 3 5.46957 3 6V20C3 20.5304 3.21071 21.0391 3.58578 21.4142C3.96085 21.7893 4.46956 22 4.99999 22H16.9999C17.5303 22 18.039 21.7893 18.4141 21.4142C18.7892 21.0391 18.9999 20.5304 18.9999 20V19.5M14.9999 4H16.9999C17.3506 4.00036 17.6951 4.09294 17.9987 4.26846C18.3024 4.44398 18.5545 4.69626 18.7299 5M6.99997 18H7.99997M7.99997 2H13.9999C14.5522 2 14.9999 2.44772 14.9999 3V5C14.9999 5.55228 14.5522 6 13.9999 6H7.99997C7.44768 6 6.99997 5.55228 6.99997 5V3C6.99997 2.44772 7.44768 2 7.99997 2ZM20.3779 12.6259C20.7762 12.2275 21 11.6873 21 11.1239C21 10.5605 20.7762 10.0203 20.3779 9.6219C19.9795 9.22355 19.4392 8.99976 18.8759 8.99976C18.3125 8.99976 17.7722 9.22355 17.3739 9.6219L13.3639 13.6339C13.1262 13.8715 12.9521 14.1652 12.8579 14.4879L12.0209 17.3579C11.9958 17.444 11.9943 17.5352 12.0166 17.622C12.0388 17.7088 12.084 17.7881 12.1474 17.8515C12.2107 17.9148 12.29 17.96 12.3768 17.9823C12.4636 18.0045 12.5549 18.003 12.6409 17.9779L15.5109 17.1409C15.8336 17.0467 16.1273 16.8727 16.3649 16.6349L20.3779 12.6259Z" stroke="black" stroke-width="1.5" stroke-linecap="round" stroke-linejoin="round"/>
</svg>
