<?xml version="1.0" encoding="utf-8"?>
<!-- Generator: Adobe Illustrator 28.0.0, SVG Export Plug-In . SVG Version: 6.00 Build 0)  -->
<svg version="1.1" id="圖層_1" xmlns="http://www.w3.org/2000/svg" xmlns:xlink="http://www.w3.org/1999/xlink" x="0px" y="0px"
	 viewBox="0 0 24 25" style="enable-background:new 0 0 24 25;" xml:space="preserve">
<style type="text/css">
	.st0{fill:#161819;}
</style>
<path class="st0" d="M13.5,16c1.2-0.7,2.1-1.8,2.6-3.1c0.5-1.3,0.6-2.7,0.2-4c-0.4-1.3-1.2-2.5-2.3-3.3s-2.5-1.3-3.8-1.3
	c-1.4,0-2.7,0.5-3.8,1.3C5.2,6.4,4.4,7.5,4,8.9c-0.4,1.3-0.3,2.8,0.2,4c0.5,1.3,1.4,2.4,2.6,3.1c-1.9,0.6-3.7,1.8-5.1,3.5
	c-0.1,0.2-0.2,0.3-0.2,0.5c0,0.2,0.1,0.4,0.3,0.5c0.2,0.1,0.3,0.2,0.5,0.2s0.4-0.1,0.5-0.3c1.9-2.2,4.5-3.5,7.3-3.5
	c2.8,0,5.4,1.2,7.3,3.5c0.1,0.2,0.3,0.2,0.5,0.3s0.4,0,0.5-0.2c0.2-0.1,0.2-0.3,0.3-0.5c0-0.2,0-0.4-0.2-0.5
	C17.2,17.9,15.4,16.7,13.5,16z M5.2,10.6c0-1,0.3-1.9,0.8-2.7s1.3-1.4,2.2-1.8c0.9-0.4,1.9-0.5,2.8-0.3C12,6,12.9,6.5,13.6,7.2
	s1.1,1.6,1.3,2.5c0.2,0.9,0.1,1.9-0.3,2.8c-0.4,0.9-1,1.7-1.8,2.2c-0.8,0.5-1.7,0.8-2.7,0.8c-1.3,0-2.5-0.5-3.4-1.4
	C5.8,13.2,5.3,11.9,5.2,10.6z M19.4,6.6c0.5,1.3,0.8,2.6,0.8,4c0,1.4-0.3,2.7-0.8,4c-0.1,0.1-0.2,0.3-0.3,0.3
	c-0.1,0.1-0.3,0.1-0.4,0.1c-0.1,0-0.2,0-0.4-0.1c-0.1-0.1-0.2-0.1-0.3-0.2c-0.1-0.1-0.1-0.2-0.1-0.3c0-0.1,0-0.2,0.1-0.4
	c0.5-1.1,0.7-2.2,0.7-3.4c0-1.2-0.2-2.3-0.7-3.4c-0.1-0.2-0.1-0.4,0-0.6c0.1-0.2,0.2-0.3,0.4-0.4c0.2-0.1,0.4-0.1,0.6,0
	C19.2,6.3,19.4,6.5,19.4,6.6z M23.2,10.6c0,1.8-0.4,3.5-1.1,5.2c-0.1,0.2-0.2,0.3-0.4,0.4c-0.2,0.1-0.4,0.1-0.6,0
	c-0.2-0.1-0.3-0.2-0.4-0.4c-0.1-0.2-0.1-0.4,0-0.6c0.6-1.4,0.9-3,0.9-4.6c0-1.6-0.3-3.1-0.9-4.6c0-0.1-0.1-0.2-0.1-0.3
	c0-0.1,0-0.2,0-0.3s0.1-0.2,0.2-0.3C21,5.1,21.1,5.1,21.2,5C21.3,5,21.4,5,21.5,5c0.1,0,0.2,0,0.3,0.1S22,5.1,22,5.2
	c0.1,0.1,0.1,0.2,0.2,0.2C22.9,7.1,23.3,8.8,23.2,10.6z"/>
</svg>
