<?xml version="1.0" encoding="utf-8"?>
<!-- Generator: Adobe Illustrator 28.0.0, SVG Export Plug-In . SVG Version: 6.00 Build 0)  -->
<svg version="1.1" id="圖層_1" xmlns="http://www.w3.org/2000/svg" xmlns:xlink="http://www.w3.org/1999/xlink" x="0px" y="0px"
	 viewBox="0 0 23 24" style="enable-background:new 0 0 23 24;" xml:space="preserve">
<style type="text/css">
	.st0{fill:#00559E;}
</style>
<path class="st0" d="M22.2,11.2H20c-0.2-1.9-1-3.7-2.4-5.1c-1.4-1.4-3.2-2.2-5.1-2.4V1.5c0-0.2-0.1-0.4-0.2-0.5
	c-0.1-0.1-0.3-0.2-0.5-0.2S11.4,0.8,11.2,1C11.1,1.1,11,1.3,11,1.5v2.3C9.1,4,7.3,4.8,5.9,6.2s-2.2,3.2-2.4,5.1H1.2
	c-0.2,0-0.4,0.1-0.5,0.2c-0.1,0.1-0.2,0.3-0.2,0.5s0.1,0.4,0.2,0.5c0.1,0.1,0.3,0.2,0.5,0.2h2.3c0.2,1.9,1,3.7,2.4,5.1
	c1.4,1.4,3.2,2.2,5.1,2.4v2.3c0,0.2,0.1,0.4,0.2,0.5c0.1,0.1,0.3,0.2,0.5,0.2s0.4-0.1,0.5-0.2c0.1-0.1,0.2-0.3,0.2-0.5v-2.3
	c1.9-0.2,3.7-1,5.1-2.4c1.4-1.4,2.2-3.2,2.4-5.1h2.3c0.2,0,0.4-0.1,0.5-0.2c0.1-0.1,0.2-0.3,0.2-0.5s-0.1-0.4-0.2-0.5
	C22.6,11.3,22.4,11.2,22.2,11.2z M11.8,18.8c-1.3,0-2.6-0.4-3.8-1.1s-2-1.8-2.5-3S4.9,12,5.1,10.7C5.4,9.4,6,8.2,7,7.2
	c0.9-0.9,2.1-1.6,3.5-1.8c1.3-0.3,2.7-0.1,3.9,0.4s2.3,1.4,3,2.5s1.1,2.4,1.1,3.8c0,1.8-0.7,3.5-2,4.8C15.3,18,13.5,18.7,11.8,18.8z
	 M11.8,8.2c-0.7,0-1.5,0.2-2.1,0.6c-0.6,0.4-1.1,1-1.4,1.7C8,11.3,7.9,12,8.1,12.7c0.1,0.7,0.5,1.4,1,1.9c0.5,0.5,1.2,0.9,1.9,1
	c0.7,0.1,1.5,0.1,2.2-0.2c0.7-0.3,1.3-0.8,1.7-1.4c0.4-0.6,0.6-1.3,0.6-2.1c0-1-0.4-1.9-1.1-2.7C13.7,8.6,12.7,8.2,11.8,8.2z
	 M11.8,14.2c-0.4,0-0.9-0.1-1.2-0.4s-0.7-0.6-0.8-1c-0.2-0.4-0.2-0.9-0.1-1.3c0.1-0.4,0.3-0.8,0.6-1.2c0.3-0.3,0.7-0.5,1.2-0.6
	c0.4-0.1,0.9,0,1.3,0.1c0.4,0.2,0.8,0.5,1,0.8S14,11.6,14,12c0,0.6-0.2,1.2-0.7,1.6C12.9,14,12.3,14.2,11.8,14.2z"/>
</svg>
