<?xml version="1.0" encoding="utf-8"?>
<!-- Generator: Adobe Illustrator 28.0.0, SVG Export Plug-In . SVG Version: 6.00 Build 0)  -->
<svg version="1.1" id="圖層_1" xmlns="http://www.w3.org/2000/svg" xmlns:xlink="http://www.w3.org/1999/xlink" x="0px" y="0px"
	 viewBox="0 0 10.4 17" style="enable-background:new 0 0 10.4 17;" xml:space="preserve">
<style type="text/css">
	.st0{fill:#161819;stroke:#161819;}
</style>
<path class="st0" d="M1.6,1C1.5,1,1.4,1,1.3,1.1S1.1,1.2,1.1,1.4S1,1.6,1.1,1.7c0,0.1,0.1,0.2,0.2,0.3l6.4,6.4l-6.5,6.5
	C1.1,15,1,15.1,1,15.3c0,0.1,0.1,0.3,0.2,0.4s0.2,0.2,0.4,0.2c0.1,0,0.3-0.1,0.4-0.2l6.9-6.9C9,8.7,9,8.7,9,8.6s0-0.1,0-0.2
	s0-0.1,0-0.2C9,8.1,8.9,8.1,8.9,8L2,1.1C1.9,1,1.9,1,1.8,1C1.7,1,1.6,1,1.6,1z"/>
</svg>
