<?xml version="1.0" encoding="utf-8"?>
<!-- Generator: Adobe Illustrator 28.0.0, SVG Export Plug-In . SVG Version: 6.00 Build 0)  -->
<svg version="1.1" id="圖層_1" xmlns="http://www.w3.org/2000/svg" xmlns:xlink="http://www.w3.org/1999/xlink" x="0px" y="0px"
	 viewBox="0 0 16 15" style="enable-background:new 0 0 16 15;" xml:space="preserve">
<style type="text/css">
	.st0{fill:#161819;fill-opacity:0.8;}
</style>
<path class="st0" d="M11.5,10.3c1-0.7,1.8-1.6,2.2-2.8C14,6.4,14.1,5.1,13.7,4c-0.3-1.2-1.1-2.2-2-2.9C10.7,0.4,9.5,0,8.3,0
	S6,0.4,5,1.1C4,1.8,3.3,2.8,3,4C2.6,5.1,2.6,6.4,3,7.5c0.4,1.1,1.2,2.1,2.2,2.8c-1.8,0.7-3.4,1.9-4.4,3.5c-0.1,0.1-0.1,0.2-0.1,0.3
	c0,0.1,0,0.2,0,0.3c0,0.1,0.1,0.2,0.1,0.3c0.1,0.1,0.1,0.2,0.2,0.2C1.1,14.9,1.2,15,1.3,15c0.1,0,0.2,0,0.3,0c0.1,0,0.2-0.1,0.3-0.1
	c0.1-0.1,0.2-0.1,0.2-0.2c0.7-1,1.6-1.9,2.7-2.5c1.1-0.6,2.3-0.9,3.6-0.9s2.5,0.3,3.6,0.9c1.1,0.6,2,1.5,2.7,2.5
	c0.1,0.2,0.3,0.3,0.5,0.3s0.4,0,0.6-0.1c0.2-0.1,0.3-0.3,0.3-0.5c0-0.2,0-0.4-0.1-0.6C14.8,12.2,13.3,11,11.5,10.3z M4.2,5.6
	c0-0.8,0.2-1.6,0.7-2.3C5.4,2.7,6,2.1,6.8,1.8c0.8-0.3,1.6-0.4,2.4-0.2c0.8,0.2,1.5,0.6,2.1,1.1c0.6,0.6,1,1.3,1.1,2.1
	s0.1,1.6-0.2,2.4c-0.3,0.8-0.8,1.4-1.5,1.9C10,9.5,9.2,9.7,8.3,9.7c-1.1,0-2.1-0.4-2.9-1.2C4.7,7.8,4.2,6.7,4.2,5.6z"/>
</svg>
