<?xml version="1.0" encoding="utf-8"?>
<!-- Generator: Adobe Illustrator 28.0.0, SVG Export Plug-In . SVG Version: 6.00 Build 0)  -->
<svg version="1.1" id="圖層_1" xmlns="http://www.w3.org/2000/svg" xmlns:xlink="http://www.w3.org/1999/xlink" x="0px" y="0px"
	 viewBox="0 0 24 25" style="enable-background:new 0 0 24 25;" xml:space="preserve">
<style type="text/css">
	.st0{fill:#00559E;}
</style>
<path class="st0" d="M19.5,3.5h-15c-0.4,0-0.8,0.2-1.1,0.4S3,4.6,3,5v15c0,0.4,0.2,0.8,0.4,1.1s0.7,0.4,1.1,0.4h15
	c0.4,0,0.8-0.2,1.1-0.4S21,20.4,21,20V5c0-0.4-0.2-0.8-0.4-1.1S19.9,3.5,19.5,3.5z M4.5,5h15v7.3l-2.3-2.3c-0.3-0.3-0.7-0.4-1.1-0.4
	c-0.4,0-0.8,0.2-1.1,0.4L5,20H4.5V5z M19.5,20H7.1l9-9l3.4,3.4V20z M9,11.7c0.4,0,0.9-0.1,1.2-0.4c0.4-0.2,0.7-0.6,0.8-1
	c0.2-0.4,0.2-0.9,0.1-1.3c-0.1-0.4-0.3-0.8-0.6-1.2c-0.3-0.3-0.7-0.5-1.2-0.6C9,7.2,8.6,7.3,8.1,7.4c-0.4,0.2-0.8,0.5-1,0.8
	C6.9,8.6,6.8,9.1,6.8,9.5c0,0.6,0.2,1.2,0.7,1.6C7.8,11.5,8.4,11.7,9,11.7z M9,8.7c0.1,0,0.3,0,0.4,0.1C9.5,9,9.6,9.1,9.7,9.2
	c0.1,0.1,0.1,0.3,0,0.4c0,0.1-0.1,0.3-0.2,0.4c-0.1,0.1-0.2,0.2-0.4,0.2c-0.1,0-0.3,0-0.4,0C8.6,10.1,8.5,10,8.4,9.9
	C8.3,9.8,8.2,9.6,8.2,9.5c0-0.2,0.1-0.4,0.2-0.5C8.6,8.8,8.8,8.7,9,8.7z"/>
</svg>
