<?xml version="1.0" encoding="utf-8"?>
<!-- Generator: Adobe Illustrator 28.0.0, SVG Export Plug-In . SVG Version: 6.00 Build 0)  -->
<svg version="1.1" id="圖層_1" xmlns="http://www.w3.org/2000/svg" xmlns:xlink="http://www.w3.org/1999/xlink" x="0px" y="0px"
	 viewBox="0 0 16 16" style="enable-background:new 0 0 16 16;" xml:space="preserve">
<style type="text/css">
	.st0{opacity:0.8;fill:#161819;}
</style>
<path class="st0" d="M1,0h5c0.6,0,1,0.4,1,1v5c0,0.6-0.4,1-1,1H1C0.4,7,0,6.6,0,6V1C0,0.4,0.4,0,1,0z"/>
<path class="st0" d="M10,0h5c0.6,0,1,0.4,1,1v5c0,0.6-0.4,1-1,1h-5C9.4,7,9,6.6,9,6V1C9,0.4,9.4,0,10,0z"/>
<path class="st0" d="M1,9h5c0.6,0,1,0.4,1,1v5c0,0.6-0.4,1-1,1H1c-0.6,0-1-0.4-1-1v-5C0,9.4,0.4,9,1,9z"/>
<path class="st0" d="M10,9h5c0.6,0,1,0.4,1,1v5c0,0.6-0.4,1-1,1h-5c-0.6,0-1-0.4-1-1v-5C9,9.4,9.4,9,10,9z"/>
</svg>
