<?xml version="1.0" encoding="utf-8"?>
<!-- Generator: Adobe Illustrator 28.0.0, SVG Export Plug-In . SVG Version: 6.00 Build 0)  -->
<svg version="1.1" id="圖層_1" xmlns="http://www.w3.org/2000/svg" xmlns:xlink="http://www.w3.org/1999/xlink" x="0px" y="0px"
	 viewBox="0 0 10.4 17" style="enable-background:new 0 0 10.4 17;" xml:space="preserve">
<style type="text/css">
	.st0{fill:#161819;stroke:#161819;}
</style>
<path class="st0" d="M8.4,1c0.1,0,0.2,0,0.3,0.1s0.2,0.1,0.2,0.3s0.1,0.2,0,0.3c0,0.1-0.1,0.2-0.2,0.3L2.3,8.4l6.5,6.5
	C8.9,15,9,15.1,9,15.3c0,0.1-0.1,0.3-0.2,0.4s-0.2,0.2-0.4,0.2c-0.1,0-0.3-0.1-0.4-0.2L1.1,8.8C1,8.7,1,8.7,1,8.6s0-0.1,0-0.2
	s0-0.1,0-0.2C1,8.1,1.1,8.1,1.1,8L8,1.1C8.1,1,8.1,1,8.2,1C8.3,1,8.4,1,8.4,1z"/>
</svg>
