<?xml version="1.0" encoding="utf-8"?>
<!-- Generator: Adobe Illustrator 28.0.0, SVG Export Plug-In . SVG Version: 6.00 Build 0)  -->
<svg version="1.1" id="圖層_1" xmlns="http://www.w3.org/2000/svg" xmlns:xlink="http://www.w3.org/1999/xlink" x="0px" y="0px"
	 viewBox="0 0 12 12" style="enable-background:new 0 0 12 12;" xml:space="preserve">
<path d="M11.8,11c0.1,0.1,0.1,0.1,0.1,0.2c0,0.1,0,0.2,0,0.2s0,0.2,0,0.2c0,0.1-0.1,0.1-0.1,0.2c-0.1,0.1-0.1,0.1-0.2,0.1
	c-0.1,0-0.2,0-0.2,0s-0.2,0-0.2,0c-0.1,0-0.1-0.1-0.2-0.1l-5-5l-5,5C0.9,11.9,0.8,12,0.6,12c-0.2,0-0.3-0.1-0.4-0.2
	C0.1,11.7,0,11.6,0,11.4s0.1-0.3,0.2-0.4l5-5l-5-5C0.1,0.9,0,0.8,0,0.6c0-0.2,0.1-0.3,0.2-0.4C0.3,0.1,0.4,0,0.6,0
	C0.8,0,0.9,0.1,1,0.2l5,5l5-5C11.1,0.1,11.2,0,11.4,0s0.3,0.1,0.4,0.2C11.9,0.3,12,0.4,12,0.6c0,0.2-0.1,0.3-0.2,0.4l-5,5L11.8,11z"
	/>
</svg>
