<?xml version="1.0" encoding="utf-8"?>
<!-- Generator: Adobe Illustrator 28.0.0, SVG Export Plug-In . SVG Version: 6.00 Build 0)  -->
<svg version="1.1" id="圖層_1" xmlns="http://www.w3.org/2000/svg" xmlns:xlink="http://www.w3.org/1999/xlink" x="0px" y="0px"
	 viewBox="0 0 33 32" style="enable-background:new 0 0 33 32;" xml:space="preserve">
<style type="text/css">
	.st0{clip-path:url(#SVGID_00000119086137846048147370000017450744935804437925_);}
	.st1{fill:#FFFFFF;}
	.st2{fill:none;stroke:#00559E;stroke-width:2;}
	.st3{fill:none;stroke:#00559E;stroke-width:2;stroke-linecap:round;}
</style>
<g>
	<defs>
		<rect id="SVGID_1_" x="0.1" y="0" width="32" height="32"/>
	</defs>
	<clipPath id="SVGID_00000142886246008150599430000001310899897329366935_">
		<use xlink:href="#SVGID_1_"  style="overflow:visible;"/>
	</clipPath>
	<g style="clip-path:url(#SVGID_00000142886246008150599430000001310899897329366935_);">
		<path class="st1" d="M15,26.9c6.6,0,12-5.4,12-12c0-6.6-5.4-12-12-12c-6.6,0-12,5.4-12,12C3,21.5,8.4,26.9,15,26.9z"/>
		<path class="st2" d="M15,25.9c6.1,0,11-4.9,11-11c0-6.1-4.9-11-11-11C9,3.9,4,8.8,4,14.9C4,20.9,9,25.9,15,25.9z"/>
		<path class="st3" d="M23.5,23.4l4,3.8"/>
	</g>
</g>
</svg>
