<?xml version="1.0" encoding="utf-8"?>
<!-- Generator: Adobe Illustrator 28.0.0, SVG Export Plug-In . SVG Version: 6.00 Build 0)  -->
<svg version="1.1" id="圖層_1" xmlns="http://www.w3.org/2000/svg" xmlns:xlink="http://www.w3.org/1999/xlink" x="0px" y="0px"
	 viewBox="0 0 19 14" style="enable-background:new 0 0 19 14;" xml:space="preserve">
<style type="text/css">
	.st0{clip-path:url(#SVGID_00000016787590755353878490000007274043016377635206_);}
	.st1{fill:#161819;stroke:#161819;stroke-width:1.5;}
	.st2{fill:none;stroke:#161819;stroke-width:2;stroke-linecap:round;}
</style>
<g>
	<defs>
		<rect id="SVGID_1_" x="0.1" y="0.2" width="18.9" height="13.6"/>
	</defs>
	<clipPath id="SVGID_00000062903410410840028730000015909416501719077557_">
		<use xlink:href="#SVGID_1_"  style="overflow:visible;"/>
	</clipPath>
	<g style="clip-path:url(#SVGID_00000062903410410840028730000015909416501719077557_);">
		<path class="st1" d="M10.9,4.9c0,0.1,0,0.1,0,0.2S11,5.1,11,5.1c0.1,0,0.1,0,0.2,0c0.1,0,0.1,0,0.1-0.1l3.2-3.2l3.2,3.2
			c0,0,0.1,0,0.1,0.1c0,0,0.1,0,0.1,0c0,0,0.1,0,0.1,0c0,0,0.1,0,0.1-0.1c0,0,0-0.1,0.1-0.1c0,0,0-0.1,0-0.1c0,0,0-0.1,0-0.1
			c0,0,0-0.1-0.1-0.1l-3.4-3.4c0,0-0.1,0-0.1-0.1c0,0-0.1,0-0.1,0s-0.1,0-0.1,0c0,0-0.1,0-0.1,0.1l-3.4,3.4c0,0,0,0.1-0.1,0.1
			S10.9,4.8,10.9,4.9z"/>
		<path class="st2" d="M14.6,12.8V2.3"/>
		<path class="st1" d="M0.9,9.1c0-0.1,0-0.1,0-0.2c0,0,0.1-0.1,0.1-0.1c0.1,0,0.1,0,0.2,0c0.1,0,0.1,0,0.1,0.1l3.2,3.2l3.2-3.2
			C7.8,8.9,7.9,8.8,8,8.8c0.1,0,0.1,0,0.2,0.1S8.3,9,8.3,9.1s0,0.1-0.1,0.2l-3.4,3.4c0,0-0.1,0-0.1,0.1c0,0-0.1,0-0.1,0
			c0,0-0.1,0-0.1,0c0,0-0.1,0-0.1-0.1L1,9.3c0,0,0-0.1-0.1-0.1C0.9,9.2,0.9,9.2,0.9,9.1z"/>
		<path class="st2" d="M4.6,1.2v10.5"/>
	</g>
</g>
</svg>
