<?xml version="1.0" encoding="utf-8"?>
<!-- Generator: Adobe Illustrator 28.0.0, SVG Export Plug-In . SVG Version: 6.00 Build 0)  -->
<svg version="1.1" id="圖層_1" xmlns="http://www.w3.org/2000/svg" xmlns:xlink="http://www.w3.org/1999/xlink" x="0px" y="0px"
	 viewBox="0 0 49 48" style="enable-background:new 0 0 49 48;" xml:space="preserve">
<style type="text/css">
	.st0{fill:none;stroke:#393E3C;stroke-width:2;stroke-linecap:round;stroke-linejoin:round;}
	.st1{fill:#1A73E8;}
	.st2{fill:#EA4335;}
	.st3{fill:#4285F4;}
	.st4{fill:#FBBC04;}
	.st5{fill:#34A853;}
</style>
<path class="st0" d="M12.3,18.1l16,15.6 M12.3,18.1c0.6-0.7,1.5-1.1,2.5-1.1h5.4 M12.3,18.1c-0.5,0.5-0.8,1.3-0.8,2v11.5
	c0,1.7,1.5,3.1,3.2,3.1h11.9c1.8,0,3.2-1.4,3.2-3.1v-2.1 M20.2,26.9l-7,6.8"/>
<path class="st1" d="M33.4,1.4C32.6,1.1,31.8,1,30.9,1c-2.6,0-4.9,1.2-6.4,3l4,3.3L33.4,1.4z"/>
<path class="st2" d="M24.5,4c-1.2,1.5-2,3.3-2,5.4c0,1.6,0.3,2.9,0.8,4l5.1-6L24.5,4z"/>
<path class="st3" d="M30.9,6.2c1.8,0,3.2,1.4,3.2,3.2c0,0.8-0.3,1.5-0.8,2.1c0,0,2.5-3,5-5.9c-1-2-2.8-3.5-4.9-4.1l-5,5.9
	C29,6.6,29.9,6.2,30.9,6.2z"/>
<path class="st4" d="M30.9,12.6c-1.8,0-3.2-1.4-3.2-3.2c0-0.8,0.3-1.5,0.7-2.1l-5.1,6c0.9,1.9,2.3,3.5,3.8,5.4l6.2-7.4
	C32.7,12.1,31.9,12.6,30.9,12.6z"/>
<path class="st5" d="M33.2,20.8c2.8-4.4,6-6.4,6-11.4c0-1.4-0.3-2.7-0.9-3.9L27.1,18.8c0.5,0.6,1,1.3,1.4,2c1.7,2.6,1.2,4.2,2.3,4.2
	C32,25,31.5,23.4,33.2,20.8z"/>
</svg>
