<?xml version="1.0" encoding="utf-8"?>
<!-- Generator: Adobe Illustrator 28.0.0, SVG Export Plug-In . SVG Version: 6.00 Build 0)  -->
<svg version="1.1" id="圖層_1" xmlns="http://www.w3.org/2000/svg" xmlns:xlink="http://www.w3.org/1999/xlink" x="0px" y="0px"
	 viewBox="0 0 24 25" style="enable-background:new 0 0 24 25;" xml:space="preserve">
<style type="text/css">
	.st0{fill:#00559E;}
</style>
<path class="st0" d="M11,15.3c1-0.7,1.8-1.6,2.2-2.8c0.4-1.1,0.4-2.4,0.1-3.5c-0.3-1.2-1.1-2.2-2-2.9C10.3,5.4,9.1,5,7.9,5
	C6.7,5,5.5,5.4,4.5,6.1S2.8,7.8,2.5,9c-0.3,1.2-0.3,2.4,0.1,3.5s1.2,2.1,2.2,2.8c-1.8,0.7-3.4,1.9-4.4,3.5c-0.1,0.1-0.1,0.2-0.1,0.3
	s0,0.2,0,0.3c0,0.1,0.1,0.2,0.1,0.3c0.1,0.1,0.1,0.2,0.2,0.2C0.6,19.9,0.7,20,0.8,20c0.1,0,0.2,0,0.3,0c0.1,0,0.2-0.1,0.3-0.1
	c0.1-0.1,0.2-0.1,0.2-0.2c0.7-1,1.6-1.9,2.7-2.5c1.1-0.6,2.3-0.9,3.6-0.9c1.2,0,2.5,0.3,3.6,0.9c1.1,0.6,2,1.5,2.7,2.5
	c0.1,0.2,0.3,0.3,0.5,0.3s0.4,0,0.6-0.1c0.2-0.1,0.3-0.3,0.3-0.5c0-0.2,0-0.4-0.1-0.6C14.4,17.2,12.8,16,11,15.3z M3.7,10.6
	C3.7,9.8,4,9,4.4,8.3c0.5-0.7,1.1-1.2,1.9-1.5c0.8-0.3,1.6-0.4,2.4-0.2c0.8,0.2,1.5,0.6,2.1,1.1c0.6,0.6,1,1.3,1.1,2.1
	c0.2,0.8,0.1,1.6-0.2,2.4c-0.3,0.8-0.8,1.4-1.5,1.9c-0.7,0.5-1.5,0.7-2.3,0.7c-1.1,0-2.1-0.4-2.9-1.2C4.2,12.8,3.8,11.7,3.7,10.6z
	 M23.5,19.9C23.3,20,23.1,20,22.9,20c-0.2,0-0.4-0.2-0.5-0.3c-0.7-1-1.6-1.9-2.7-2.5c-1.1-0.6-2.3-0.9-3.6-0.9
	c-0.2,0-0.4-0.1-0.5-0.2c-0.1-0.1-0.2-0.3-0.2-0.5s0.1-0.4,0.2-0.5c0.1-0.1,0.3-0.2,0.5-0.2c0.6,0,1.2-0.1,1.8-0.4s1-0.6,1.4-1.1
	s0.7-1,0.8-1.6c0.2-0.6,0.2-1.2,0.1-1.8c-0.1-0.6-0.4-1.2-0.7-1.7c-0.4-0.5-0.8-0.9-1.4-1.2c-0.5-0.3-1.1-0.5-1.7-0.5
	c-0.6,0-1.2,0.1-1.8,0.3c-0.1,0-0.2,0.1-0.3,0.1c-0.1,0-0.2,0-0.3-0.1c-0.1,0-0.2-0.1-0.2-0.2c-0.1-0.1-0.1-0.2-0.2-0.2
	s-0.1-0.2-0.1-0.3c0-0.1,0-0.2,0.1-0.3c0-0.1,0.1-0.2,0.2-0.2c0.1-0.1,0.2-0.1,0.3-0.2c1.3-0.5,2.7-0.5,4-0.1s2.4,1.4,3,2.7
	s0.8,2.7,0.5,4c-0.3,1.3-1.2,2.5-2.3,3.3c1.8,0.7,3.4,1.9,4.4,3.5c0.1,0.2,0.1,0.4,0.1,0.6C23.7,19.6,23.6,19.8,23.5,19.9z"/>
</svg>
