<svg width="24" height="24" viewBox="0 0 24 24" fill="none" xmlns="http://www.w3.org/2000/svg">
<path d="M10.789 14.3073C11.7942 13.6381 12.5573 12.6632 12.9656 11.5267C13.3738 10.3902 13.4055 9.15256 13.056 7.99669C12.7064 6.84082 11.9941 5.82813 11.0245 5.10837C10.0549 4.38861 8.87937 4 7.6718 4C6.46423 4 5.28871 4.38861 4.31909 5.10837C3.34946 5.82813 2.6372 6.84082 2.28763 7.99669C1.93807 9.15256 1.96976 10.3902 2.37802 11.5267C2.78627 12.6632 3.54942 13.6381 4.55461 14.3073C2.73632 14.9774 1.18346 16.2176 0.127737 17.8426C0.0722517 17.9251 0.0337116 18.0177 0.0143569 18.1152C-0.00499789 18.2127 -0.00478119 18.3131 0.0149944 18.4105C0.0347699 18.5079 0.0737098 18.6004 0.129551 18.6826C0.185391 18.7649 0.257019 18.8352 0.340271 18.8895C0.423522 18.9438 0.516736 18.981 0.614495 18.9989C0.712253 19.0169 0.812606 19.0152 0.909721 18.9941C1.00684 18.9729 1.09877 18.9326 1.18019 18.8756C1.26161 18.8186 1.33088 18.746 1.38399 18.662C2.06498 17.6146 2.99682 16.7539 4.0949 16.1581C5.19297 15.5623 6.42249 15.2502 7.6718 15.2502C8.92111 15.2502 10.1506 15.5623 11.2487 16.1581C12.3468 16.7539 13.2786 17.6146 13.9596 18.662C14.0696 18.8255 14.2395 18.9391 14.4327 18.9783C14.6258 19.0175 14.8266 18.9791 14.9916 18.8715C15.1567 18.7638 15.2727 18.5955 15.3147 18.403C15.3566 18.2105 15.3211 18.0092 15.2159 17.8426C14.1601 16.2176 12.6073 14.9774 10.789 14.3073ZM3.5468 9.62728C3.5468 8.81143 3.78873 8.01391 4.24199 7.33556C4.69525 6.6572 5.33949 6.12849 6.09323 5.81628C6.84698 5.50407 7.67638 5.42238 8.47655 5.58154C9.27672 5.74071 10.0117 6.13358 10.5886 6.71047C11.1655 7.28736 11.5584 8.02236 11.7175 8.82253C11.8767 9.62271 11.795 10.4521 11.4828 11.2059C11.1706 11.9596 10.6419 12.6038 9.96353 13.0571C9.28517 13.5104 8.48765 13.7523 7.6718 13.7523C6.57816 13.751 5.52967 13.316 4.75635 12.5427C3.98304 11.7694 3.54804 10.7209 3.5468 9.62728Z" fill="#00559E"/>
<circle cx="8" cy="10" r="5" fill="#00559E"/>
<path d="M5 10.2725L7.93431 13L14 7" stroke="white" stroke-width="1.5" stroke-linecap="round" stroke-linejoin="round"/>
<path d="M22.9051 18.8771C22.7385 18.9857 22.5356 19.0237 22.341 18.9827C22.1463 18.9418 21.976 18.8252 21.8673 18.6586C21.1871 17.6106 20.2554 16.7495 19.1571 16.154C18.0588 15.5584 16.8289 15.2473 15.5795 15.2489C15.3806 15.2489 15.1898 15.1699 15.0491 15.0293C14.9085 14.8886 14.8295 14.6978 14.8295 14.4989C14.8295 14.3 14.9085 14.1093 15.0491 13.9686C15.1898 13.8279 15.3806 13.7489 15.5795 13.7489C16.1869 13.7484 16.7868 13.6136 17.3362 13.3544C17.8855 13.0951 18.3708 12.7177 18.7574 12.2491C19.144 11.7805 19.4224 11.2323 19.5725 10.6437C19.7227 10.0551 19.741 9.44059 19.6262 8.84407C19.5113 8.24756 19.2662 7.68377 18.9082 7.19299C18.5502 6.70222 18.0882 6.29657 17.5553 6.00503C17.0223 5.71349 16.4316 5.54326 15.8252 5.50649C15.2189 5.46973 14.6119 5.56735 14.0476 5.79237C13.9556 5.83214 13.8566 5.85307 13.7563 5.85392C13.6561 5.85476 13.5567 5.83551 13.4641 5.7973C13.3714 5.75909 13.2874 5.7027 13.2169 5.63145C13.1464 5.5602 13.0909 5.47555 13.0536 5.38249C13.0164 5.28943 12.9982 5.18985 13.0001 5.08964C13.002 4.98943 13.024 4.89062 13.0648 4.79904C13.1055 4.70747 13.1642 4.62499 13.2374 4.55649C13.3105 4.48798 13.3967 4.43483 13.4907 4.40018C14.7821 3.88517 16.2184 3.86663 17.5227 4.34816C18.8269 4.82968 19.9066 5.77714 20.5535 7.00776C21.2004 8.23838 21.3686 9.66496 21.0257 11.0123C20.6828 12.3596 19.8531 13.5322 18.6967 14.3039C20.515 14.9741 22.0678 16.2142 23.1235 17.8392C23.2322 18.0058 23.2702 18.2088 23.2292 18.4034C23.1883 18.598 23.0717 18.7684 22.9051 18.8771Z" fill="#00559E"/>
</svg>
